<?xml version="1.0" encoding="UTF-8" standalone="no"?>
<!-- Created with Inkscape (http://www.inkscape.org/) -->

<svg
   version="1.1"
   id="svg1"
   width="464.53067"
   height="405.86401"
   viewBox="0 0 464.53067 405.86401"
   xmlns="http://www.w3.org/2000/svg"
   xmlns:svg="http://www.w3.org/2000/svg">
  <defs
     id="defs1" />
  <g
     id="g1">
    <path
       id="path6"
       d="m 3.7848047,-0.55057812 v 0.65625 L 5.2496484,2.03125e-4 V -0.30448437 c -0.703125,0 -0.7734375,-0.0703125 -0.7734375,-0.5625 V -6.9138594 l -1.4414062,0.1054688 v 0.3164062 c 0.703125,0 0.7851562,0.070312 0.7851562,0.5507813 v 2.15625 c -0.2929687,-0.3632813 -0.7265625,-0.6210938 -1.265625,-0.6210938 -1.171875,0 -2.21484371,0.984375 -2.21484371,2.2617188 0,1.26562498 0.97265621,2.24999998 2.10937501,2.24999998 0.6445312,0 1.0898437,-0.33984375 1.3359375,-0.65625 z m 0,-2.67187498 v 2.0507812 c 0,0.17578128 0,0.19921878 -0.1054688,0.36328128 -0.3046875,0.48046875 -0.75,0.703125 -1.1835937,0.703125 -0.4453125,0 -0.796875,-0.2578125 -1.0429688,-0.64453125 C 1.1949609,-1.1599531 1.1598047,-1.7224531 1.1598047,-2.1326094 c 0,-0.3632812 0.023437,-0.9609375 0.3164062,-1.4179687 0.2109375,-0.3046875 0.5859375,-0.6328125 1.125,-0.6328125 0.3515625,0 0.7617188,0.1523437 1.078125,0.5976562 0.1054688,0.1640625 0.1054688,0.1875 0.1054688,0.3632813 z m 3.5068359,-1.1835938 -1.3945312,0.1171875 v 0.3046875 c 0.65625,0 0.7382812,0.058594 0.7382812,0.5507813 v 2.67187498 c 0,0.45703125 -0.1054687,0.45703125 -0.7734375,0.45703125 V 2.03125e-4 C 6.1783594,-0.01151562 6.7174219,-0.03495312 6.9635156,-0.03495312 c 0.3398438,0 0.6914063,0.0234375 1.03125,0.035156245 V -0.30448437 c -0.65625,0 -0.703125,-0.0585938 -0.703125,-0.4453125 z m 0.046875,-1.734375 c 0,-0.3164062 -0.2460937,-0.5273437 -0.5273437,-0.5273437 -0.3164063,0 -0.5273438,0.2695312 -0.5273438,0.5273437 0,0.2695313 0.2109375,0.5273438 0.5273438,0.5273438 0.28125,0 0.5273437,-0.1992188 0.5273437,-0.5273438 z m 2.0654297,2.71875 v 2.66015628 c 0,0.45703125 -0.1171875,0.45703125 -0.7851562,0.45703125 V 2.03125e-4 c 0.3515625,-0.011718745 0.8554687,-0.035156245 1.125,-0.035156245 0.2578129,0 0.7851559,0.0234375 1.1132809,0.035156245 V -0.30448437 c -0.65625,0 -0.773437,0 -0.773437,-0.45703125 V -2.5896406 c 0,-1.03125 0.714844,-1.59375 1.347656,-1.59375 0.621094,0 0.738281,0.5390625 0.738281,1.1015625 v 2.32031248 c 0,0.45703125 -0.117187,0.45703125 -0.773437,0.45703125 V 2.03125e-4 c 0.339844,-0.011718745 0.855469,-0.035156245 1.125,-0.035156245 0.257812,0 0.773437,0.0234375 1.113281,0.035156245 V -0.30448437 c -0.667969,0 -0.785156,0 -0.785156,-0.45703125 V -2.5896406 c 0,-1.03125 0.714844,-1.59375 1.347656,-1.59375 0.632813,0 0.738281,0.5390625 0.738281,1.1015625 v 2.32031248 c 0,0.45703125 -0.105468,0.45703125 -0.773437,0.45703125 V 2.03125e-4 c 0.351562,-0.011718745 0.855469,-0.035156245 1.125,-0.035156245 0.257812,0 0.773437,0.0234375 1.113281,0.035156245 V -0.30448437 c -0.515625,0 -0.761719,0 -0.773437,-0.3046875 V -2.5076094 c 0,-0.8554687 0,-1.171875 -0.316407,-1.5234375 -0.128906,-0.1757812 -0.46875,-0.375 -1.042968,-0.375 -0.832032,0 -1.277344,0.5976563 -1.441407,0.984375 -0.140625,-0.8671875 -0.878906,-0.984375 -1.324218,-0.984375 -0.726563,0 -1.195313,0.4335938 -1.476563,1.0546875 v -1.0546875 l -1.4062499,0.1171875 v 0.3046875 c 0.703125,0 0.7851562,0.070312 0.7851562,0.5625 z m 16.8134767,0.1640625 c 0.152344,0 0.339844,0 0.339844,-0.1992187 0,-0.1992188 -0.1875,-0.1992188 -0.328125,-0.1992188 h -5.964844 c -0.140625,0 -0.328125,0 -0.328125,0.1992188 0,0.1992187 0.1875,0.1992187 0.339844,0.1992187 z m 0.01172,1.9335938 c 0.140625,0 0.328125,0 0.328125,-0.1992188 0,-0.1992187 -0.1875,-0.1992187 -0.339844,-0.1992187 h -5.941406 c -0.152344,0 -0.339844,0 -0.339844,0.1992187 0,0.1992188 0.1875,0.1992188 0.328125,0.1992188 z m 8.235351,-1.8632813 c 0,-0.796875 -0.04687,-1.59375 -0.398437,-2.3320312 -0.457032,-0.9609375 -1.277344,-1.1132813 -1.6875,-1.1132813 -0.597657,0 -1.335938,0.2578125 -1.734375,1.1835938 -0.328125,0.6914062 -0.375,1.4648437 -0.375,2.2617187 0,0.75 0.04687,1.640625 0.445312,2.40234378 0.433594,0.80859375 1.160156,1.0078125 1.652344,1.0078125 0.539062,0 1.289062,-0.2109375 1.734375,-1.16015625 0.316406,-0.69140623 0.363281,-1.46484373 0.363281,-2.25000003 z M 32.366836,2.03125e-4 c -0.386719,0 -0.984375,-0.246093745 -1.160156,-1.207031225 -0.105469,-0.5976563 -0.105469,-1.5117188 -0.105469,-2.0976563 0,-0.6445312 0,-1.3007812 0.08203,-1.8398437 0.1875,-1.1835938 0.925781,-1.265625 1.183594,-1.265625 0.328125,0 0.984375,0.1757812 1.171875,1.1601562 0.09375,0.5625 0.09375,1.3125 0.09375,1.9453125 0,0.75 0,1.4179688 -0.105469,2.0625 -0.152344,0.93750003 -0.714844,1.242187525 -1.160155,1.242187525 z m 0,0"
       style="fill:#000000;fill-opacity:1;fill-rule:nonzero;stroke:none"
       aria-label="dim=0"
       transform="matrix(1.3333333,0,0,1.3333333,13.02,386.21067)" />
    <path
       id="path7"
       d="m 309.73437,377.10938 c 0.125,-0.48438 0.15625,-0.625 1.40625,-0.625 0.40625,0 0.5,0 0.5,-0.25 0,-0.17188 -0.14062,-0.17188 -0.20312,-0.17188 -0.4375,0 -1.53125,0.0469 -1.96875,0.0469 -0.40625,0 -1.375,-0.0469 -1.76563,-0.0469 -0.0937,0 -0.25,0 -0.25,0.26563 0,0.15625 0.10938,0.15625 0.375,0.15625 0.0156,0 0.26563,0 0.5,0.0156 0.23438,0.0312 0.35938,0.0469 0.35938,0.21875 0,0.0469 -0.0156,0.0937 -0.0625,0.25 l -1.78125,7.14063 c -0.125,0.51562 -0.15625,0.625 -1.20313,0.625 -0.21875,0 -0.35937,0 -0.35937,0.26562 0,0.14063 0.125,0.14063 0.35937,0.14063 h 6.15625 c 0.3125,0 0.32813,0 0.40625,-0.21875 l 1.04688,-2.875 c 0.0625,-0.14063 0.0625,-0.17188 0.0625,-0.1875 0,-0.0469 -0.0469,-0.14063 -0.17188,-0.14063 -0.10937,0 -0.125,0.0625 -0.21875,0.28125 -0.45312,1.21875 -1.03125,2.73438 -3.32812,2.73438 h -1.25 c -0.1875,0 -0.21875,0 -0.29688,-0.0156 -0.14062,-0.0156 -0.17187,-0.0312 -0.17187,-0.14062 0,-0.0312 0,-0.0625 0.0625,-0.29688 z m 0,0"
       style="fill:#000000;fill-opacity:1;fill-rule:nonzero;stroke:none;stroke-width:1.33333" />
    <path
       id="path8"
       d="m 316.33984,384.02344 c 0.73438,0 1.25,0.5 1.25,1.5 0,1.15625 -0.67187,1.5 -1.20312,1.5 -0.375,0 -1.1875,-0.10938 -1.57813,-0.65625 0.4375,-0.0156 0.53125,-0.32813 0.53125,-0.51563 0,-0.29687 -0.21875,-0.51562 -0.51562,-0.51562 -0.25,0 -0.51563,0.15625 -0.51563,0.54687 0,0.875 0.96875,1.4375 2.09375,1.4375 1.29688,0 2.1875,-0.85937 2.1875,-1.79687 0,-0.71875 -0.59375,-1.45313 -1.625,-1.65625 0.98438,-0.35938 1.32813,-1.0625 1.32813,-1.625 0,-0.73438 -0.84375,-1.28125 -1.875,-1.28125 -1.03125,0 -1.8125,0.5 -1.8125,1.25 0,0.3125 0.20312,0.48437 0.48437,0.48437 0.28125,0 0.46875,-0.21875 0.46875,-0.46875 0,-0.26562 -0.1875,-0.46875 -0.46875,-0.48437 0.3125,-0.40625 0.95313,-0.51563 1.29688,-0.51563 0.42187,0 1.01562,0.20313 1.01562,1.01563 0,0.39062 -0.14062,0.8125 -0.375,1.10937 -0.3125,0.34375 -0.5625,0.375 -1.03125,0.39063 -0.23437,0.0312 -0.25,0.0312 -0.29687,0.0312 -0.0156,0 -0.0937,0.0156 -0.0937,0.125 0,0.125 0.0781,0.125 0.23437,0.125 z m 0,0"
       style="fill:#000000;fill-opacity:1;fill-rule:nonzero;stroke:none;stroke-width:1.33333" />
    <path
       id="path9"
       d="m 3.7848047,-0.54960156 v 0.65625 L 5.2496484,0.00117969 v -0.3046875 c -0.703125,0 -0.7734375,-0.0703125 -0.7734375,-0.5625 V -6.9128828 l -1.4414062,0.1054687 v 0.3164063 c 0.703125,0 0.7851562,0.070312 0.7851562,0.5507812 v 2.15625 c -0.2929687,-0.3632812 -0.7265625,-0.6210937 -1.265625,-0.6210937 -1.171875,0 -2.21484371,0.984375 -2.21484371,2.2617187 0,1.26562504 0.97265621,2.25000004 2.10937501,2.25000004 0.6445312,0 1.0898437,-0.33984375 1.3359375,-0.65625 z m 0,-2.67187504 v 2.0507813 c 0,0.17578124 0,0.19921874 -0.1054688,0.36328124 -0.3046875,0.48046875 -0.75,0.703125 -1.1835937,0.703125 -0.4453125,0 -0.796875,-0.2578125 -1.0429688,-0.64453125 C 1.1949609,-1.1589766 1.1598047,-1.7214766 1.1598047,-2.1316328 c 0,-0.3632813 0.023437,-0.9609375 0.3164062,-1.4179688 0.2109375,-0.3046875 0.5859375,-0.6328125 1.125,-0.6328125 0.3515625,0 0.7617188,0.1523438 1.078125,0.5976563 0.1054688,0.1640625 0.1054688,0.1875 0.1054688,0.3632812 z m 3.5068359,-1.1835937 -1.3945312,0.1171875 v 0.3046875 c 0.65625,0 0.7382812,0.058594 0.7382812,0.5507812 v 2.67187504 c 0,0.45703125 -0.1054687,0.45703125 -0.7734375,0.45703125 v 0.3046875 c 0.3164063,-0.01171875 0.8554688,-0.03515625 1.1015625,-0.03515625 0.3398438,0 0.6914063,0.0234375 1.03125,0.03515625 v -0.3046875 c -0.65625,0 -0.703125,-0.0585938 -0.703125,-0.4453125 z m 0.046875,-1.734375 c 0,-0.3164063 -0.2460937,-0.5273438 -0.5273437,-0.5273438 -0.3164063,0 -0.5273438,0.2695313 -0.5273438,0.5273438 0,0.2695312 0.2109375,0.5273437 0.5273438,0.5273437 0.28125,0 0.5273437,-0.1992187 0.5273437,-0.5273437 z m 2.0654297,2.71875 v 2.66015624 c 0,0.45703125 -0.1171875,0.45703125 -0.7851562,0.45703125 v 0.3046875 c 0.3515625,-0.01171875 0.8554687,-0.03515625 1.125,-0.03515625 0.2578129,0 0.7851559,0.0234375 1.1132809,0.03515625 v -0.3046875 c -0.65625,0 -0.773437,0 -0.773437,-0.45703125 V -2.5886641 c 0,-1.03125 0.714844,-1.59375 1.347656,-1.59375 0.621094,0 0.738281,0.5390625 0.738281,1.1015625 v 2.32031254 c 0,0.45703125 -0.117187,0.45703125 -0.773437,0.45703125 v 0.3046875 c 0.339844,-0.01171875 0.855469,-0.03515625 1.125,-0.03515625 0.257812,0 0.773437,0.0234375 1.113281,0.03515625 v -0.3046875 c -0.667969,0 -0.785156,0 -0.785156,-0.45703125 V -2.5886641 c 0,-1.03125 0.714844,-1.59375 1.347656,-1.59375 0.632813,0 0.738281,0.5390625 0.738281,1.1015625 v 2.32031254 c 0,0.45703125 -0.105468,0.45703125 -0.773437,0.45703125 v 0.3046875 c 0.351562,-0.01171875 0.855469,-0.03515625 1.125,-0.03515625 0.257812,0 0.773437,0.0234375 1.113281,0.03515625 v -0.3046875 c -0.515625,0 -0.761719,0 -0.773437,-0.3046875 V -2.5066328 c 0,-0.8554688 0,-1.171875 -0.316407,-1.5234375 -0.128906,-0.1757813 -0.46875,-0.375 -1.042968,-0.375 -0.832032,0 -1.277344,0.5976562 -1.441407,0.984375 -0.140625,-0.8671875 -0.878906,-0.984375 -1.324218,-0.984375 -0.726563,0 -1.195313,0.4335937 -1.476563,1.0546875 v -1.0546875 l -1.4062499,0.1171875 v 0.3046875 c 0.703125,0 0.7851562,0.070312 0.7851562,0.5625 z m 16.8134767,0.1640625 c 0.152344,0 0.339844,0 0.339844,-0.1992188 0,-0.1992187 -0.1875,-0.1992187 -0.328125,-0.1992187 h -5.964844 c -0.140625,0 -0.328125,0 -0.328125,0.1992187 0,0.1992188 0.1875,0.1992188 0.339844,0.1992188 z m 0.01172,1.9335937 c 0.140625,0 0.328125,0 0.328125,-0.1992187 0,-0.1992188 -0.1875,-0.1992188 -0.339844,-0.1992188 h -5.941406 c -0.152344,0 -0.339844,0 -0.339844,0.1992188 0,0.1992187 0.1875,0.1992187 0.328125,0.1992187 z m 4.918945,0.56250004 1.054687,-1.03125004 c 1.558594,-1.3710937 2.15625,-1.9101562 2.15625,-2.90625 0,-1.1367187 -0.902343,-1.9335937 -2.121093,-1.9335937 -1.125,0 -1.851563,0.9140625 -1.851563,1.8046875 0,0.5507812 0.492188,0.5507812 0.527344,0.5507812 0.164062,0 0.515625,-0.1171875 0.515625,-0.5273437 0,-0.2578125 -0.1875,-0.515625 -0.527344,-0.515625 -0.08203,0 -0.105469,0 -0.128906,0.011719 0.222656,-0.6445312 0.761719,-1.0195312 1.335937,-1.0195312 0.914063,0 1.335938,0.8085937 1.335938,1.6289062 0,0.796875 -0.492188,1.5820313 -1.042969,2.203125 l -1.910156,2.13281254 c -0.105469,0.10546875 -0.105469,0.12890625 -0.105469,0.36328125 h 3.691406 l 0.28125,-1.73437499 h -0.257812 c -0.04687,0.3046875 -0.117188,0.73828124 -0.210938,0.89062499 -0.07031,0.0820313 -0.726562,0.0820313 -0.949218,0.0820313 z m 0,0"
       style="fill:#000000;fill-opacity:1;fill-rule:nonzero;stroke:none"
       aria-label="dim=2"
       transform="matrix(1.3333333,0,0,1.3333333,13.02,296.87733)" />
    <path
       id="path10"
       d="m 223.06641,287.77735 c 0.125,-0.48438 0.15625,-0.625 1.40625,-0.625 0.40625,0 0.5,0 0.5,-0.25 0,-0.17188 -0.14063,-0.17188 -0.20313,-0.17188 -0.4375,0 -1.53125,0.0469 -1.96875,0.0469 -0.40625,0 -1.375,-0.0469 -1.76562,-0.0469 -0.0937,0 -0.25,0 -0.25,0.26563 0,0.15625 0.10937,0.15625 0.375,0.15625 0.0156,0 0.26562,0 0.5,0.0156 0.23437,0.0312 0.35937,0.0469 0.35937,0.21875 0,0.0469 -0.0156,0.0937 -0.0625,0.25 l -1.78125,7.14063 c -0.125,0.51562 -0.15625,0.625 -1.20312,0.625 -0.21875,0 -0.35938,0 -0.35938,0.26562 0,0.14063 0.125,0.14063 0.35938,0.14063 h 6.15625 c 0.3125,0 0.32812,0 0.40625,-0.21875 l 1.04687,-2.875 c 0.0625,-0.14063 0.0625,-0.17188 0.0625,-0.1875 0,-0.0469 -0.0469,-0.14063 -0.17187,-0.14063 -0.10938,0 -0.125,0.0625 -0.21875,0.28125 -0.45313,1.21875 -1.03125,2.73438 -3.32813,2.73438 h -1.25 c -0.1875,0 -0.21875,0 -0.29687,-0.0156 -0.14063,-0.0156 -0.17188,-0.0312 -0.17188,-0.14062 0,-0.0312 0,-0.0625 0.0625,-0.29688 z m 0,0"
       style="fill:#000000;fill-opacity:1;fill-rule:nonzero;stroke:none;stroke-width:1.33333" />
    <path
       id="path11"
       d="m 230.25,291.89453 c 0,-0.25 -0.0156,-0.26562 -0.28125,-0.26562 -0.59375,0.57812 -1.4375,0.59375 -1.8125,0.59375 v 0.32812 c 0.21875,0 0.82813,0 1.34375,-0.25 v 4.73438 c 0,0.3125 0,0.4375 -0.92187,0.4375 h -0.35938 v 0.32812 c 0.17188,-0.0156 1.3125,-0.0312 1.65625,-0.0312 0.28125,0 1.45313,0.0156 1.65625,0.0312 v -0.32812 h -0.34375 c -0.9375,0 -0.9375,-0.125 -0.9375,-0.4375 z m 0,0"
       style="fill:#000000;fill-opacity:1;fill-rule:nonzero;stroke:none;stroke-width:1.33333" />
    <path
       id="path12"
       d="m 309.73437,287.77735 c 0.125,-0.48438 0.15625,-0.625 1.40625,-0.625 0.40625,0 0.5,0 0.5,-0.25 0,-0.17188 -0.14062,-0.17188 -0.20312,-0.17188 -0.4375,0 -1.53125,0.0469 -1.96875,0.0469 -0.40625,0 -1.375,-0.0469 -1.76563,-0.0469 -0.0937,0 -0.25,0 -0.25,0.26563 0,0.15625 0.10938,0.15625 0.375,0.15625 0.0156,0 0.26563,0 0.5,0.0156 0.23438,0.0312 0.35938,0.0469 0.35938,0.21875 0,0.0469 -0.0156,0.0937 -0.0625,0.25 l -1.78125,7.14063 c -0.125,0.51562 -0.15625,0.625 -1.20313,0.625 -0.21875,0 -0.35937,0 -0.35937,0.26562 0,0.14063 0.125,0.14063 0.35937,0.14063 h 6.15625 c 0.3125,0 0.32813,0 0.40625,-0.21875 l 1.04688,-2.875 c 0.0625,-0.14063 0.0625,-0.17188 0.0625,-0.1875 0,-0.0469 -0.0469,-0.14063 -0.17188,-0.14063 -0.10937,0 -0.125,0.0625 -0.21875,0.28125 -0.45312,1.21875 -1.03125,2.73438 -3.32812,2.73438 h -1.25 c -0.1875,0 -0.21875,0 -0.29688,-0.0156 -0.14062,-0.0156 -0.17187,-0.0312 -0.17187,-0.14062 0,-0.0312 0,-0.0625 0.0625,-0.29688 z m 0,0"
       style="fill:#000000;fill-opacity:1;fill-rule:nonzero;stroke:none;stroke-width:1.33333" />
    <path
       id="path13"
       d="m 318.49609,296.11328 h -0.3125 c -0.0312,0.20313 -0.10937,0.75 -0.23437,0.84375 -0.0781,0.0469 -0.79688,0.0469 -0.92188,0.0469 h -1.71875 c 0.98438,-0.85938 1.3125,-1.125 1.85938,-1.5625 0.6875,-0.54688 1.32812,-1.125 1.32812,-2 0,-1.125 -0.98437,-1.8125 -2.17187,-1.8125 -1.15625,0 -1.9375,0.8125 -1.9375,1.65625 0,0.48437 0.40625,0.53125 0.5,0.53125 0.21875,0 0.5,-0.15625 0.5,-0.5 0,-0.17188 -0.0781,-0.48438 -0.5625,-0.48438 0.29687,-0.67187 0.92187,-0.875 1.35937,-0.875 0.9375,0 1.42188,0.73438 1.42188,1.48438 0,0.8125 -0.57813,1.45312 -0.875,1.78125 l -2.25,2.21875 c -0.0937,0.0781 -0.0937,0.0937 -0.0937,0.35937 h 3.84375 z m 0,0"
       style="fill:#000000;fill-opacity:1;fill-rule:nonzero;stroke:none;stroke-width:1.33333" />
    <path
       id="path14"
       d="m 396.40234,287.77735 c 0.125,-0.48438 0.15625,-0.625 1.40625,-0.625 0.40625,0 0.5,0 0.5,-0.25 0,-0.17188 -0.14062,-0.17188 -0.20312,-0.17188 -0.4375,0 -1.53125,0.0469 -1.96875,0.0469 -0.40625,0 -1.375,-0.0469 -1.76563,-0.0469 -0.0937,0 -0.25,0 -0.25,0.26563 0,0.15625 0.10938,0.15625 0.375,0.15625 0.0156,0 0.26563,0 0.5,0.0156 0.23438,0.0312 0.35938,0.0469 0.35938,0.21875 0,0.0469 -0.0156,0.0937 -0.0625,0.25 l -1.78125,7.14063 c -0.125,0.51562 -0.15625,0.625 -1.20313,0.625 -0.21875,0 -0.35937,0 -0.35937,0.26562 0,0.14063 0.125,0.14063 0.35937,0.14063 h 6.15625 c 0.3125,0 0.32813,0 0.40625,-0.21875 l 1.04688,-2.875 c 0.0625,-0.14063 0.0625,-0.17188 0.0625,-0.1875 0,-0.0469 -0.0469,-0.14063 -0.17188,-0.14063 -0.10937,0 -0.125,0.0625 -0.21875,0.28125 -0.45312,1.21875 -1.03125,2.73438 -3.32812,2.73438 h -1.25 c -0.1875,0 -0.21875,0 -0.29688,-0.0156 -0.14062,-0.0156 -0.17187,-0.0312 -0.17187,-0.14062 0,-0.0312 0,-0.0625 0.0625,-0.29688 z m 0,0"
       style="fill:#000000;fill-opacity:1;fill-rule:nonzero;stroke:none;stroke-width:1.33333" />
    <path
       id="path15"
       d="m 401.86328,294.75391 c 0,-0.75 0.0625,-1.4375 0.42188,-2.01563 0.3125,-0.5 0.8125,-0.84375 1.40625,-0.84375 0.28125,0 0.65625,0.0781 0.84375,0.32813 -0.23438,0.0156 -0.42188,0.17187 -0.42188,0.45312 0,0.21875 0.15625,0.4375 0.4375,0.4375 0.26563,0 0.4375,-0.1875 0.4375,-0.46875 0,-0.53125 -0.39062,-1.01562 -1.3125,-1.01562 -1.32812,0 -2.70312,1.21875 -2.70312,3.21875 0,2.40625 1.14062,3.14062 2.15625,3.14062 1.14062,0 2.125,-0.85937 2.125,-2.07812 0,-1.1875 -0.9375,-2.0625 -2.03125,-2.0625 -0.73438,0 -1.15625,0.5 -1.35938,0.90625 z m 1.26563,2.9375 c -0.46875,0 -0.82813,-0.26563 -1.01563,-0.6875 -0.14062,-0.26563 -0.21875,-0.73438 -0.21875,-1.29688 0,-0.90625 0.54688,-1.59375 1.28125,-1.59375 0.4375,0 0.71875,0.15625 0.95313,0.51563 0.21875,0.34375 0.23437,0.73437 0.23437,1.28125 0,0.53125 0,0.92187 -0.25,1.28125 -0.23437,0.32812 -0.53125,0.5 -0.98437,0.5 z m 0,0"
       style="fill:#000000;fill-opacity:1;fill-rule:nonzero;stroke:none;stroke-width:1.33333" />
    <path
       id="path16"
       d="m 3.7848047,-0.55155469 v 0.65625 L 5.2496484,-7.734375e-4 V -0.30546094 c -0.703125,0 -0.7734375,-0.0703125 -0.7734375,-0.5625 V -6.9148359 l -1.4414062,0.1054687 v 0.3164063 c 0.703125,0 0.7851562,0.070312 0.7851562,0.5507812 v 2.15625 c -0.2929687,-0.3632812 -0.7265625,-0.6210937 -1.265625,-0.6210937 -1.171875,0 -2.21484371,0.984375 -2.21484371,2.2617187 0,1.26562501 0.97265621,2.25000001 2.10937501,2.25000001 0.6445312,0 1.0898437,-0.33984375 1.3359375,-0.65625 z m 0,-2.67187501 v 2.0507813 c 0,0.17578121 0,0.19921871 -0.1054688,0.36328121 -0.3046875,0.48046875 -0.75,0.703125 -1.1835937,0.703125 -0.4453125,0 -0.796875,-0.2578125 -1.0429688,-0.64453125 C 1.1949609,-1.1609297 1.1598047,-1.7234297 1.1598047,-2.1335859 c 0,-0.3632813 0.023437,-0.9609375 0.3164062,-1.4179688 0.2109375,-0.3046875 0.5859375,-0.6328125 1.125,-0.6328125 0.3515625,0 0.7617188,0.1523438 1.078125,0.5976563 0.1054688,0.1640625 0.1054688,0.1875 0.1054688,0.3632812 z m 3.5068359,-1.1835937 -1.3945312,0.1171875 v 0.3046875 c 0.65625,0 0.7382812,0.058594 0.7382812,0.5507812 v 2.67187501 c 0,0.45703125 -0.1054687,0.45703125 -0.7734375,0.45703125 V -7.734375e-4 C 6.1783594,-0.01249219 6.7174219,-0.03592969 6.9635156,-0.03592969 c 0.3398438,0 0.6914063,0.0234375 1.03125,0.0351562525 V -0.30546094 c -0.65625,0 -0.703125,-0.0585938 -0.703125,-0.4453125 z m 0.046875,-1.734375 c 0,-0.3164063 -0.2460937,-0.5273438 -0.5273437,-0.5273438 -0.3164063,0 -0.5273438,0.2695313 -0.5273438,0.5273438 0,0.2695312 0.2109375,0.5273437 0.5273438,0.5273437 0.28125,0 0.5273437,-0.1992187 0.5273437,-0.5273437 z m 2.0654297,2.71875 v 2.66015621 c 0,0.45703125 -0.1171875,0.45703125 -0.7851562,0.45703125 v 0.3046875025 c 0.3515625,-0.0117187525 0.8554687,-0.0351562525 1.125,-0.0351562525 0.2578129,0 0.7851559,0.0234375 1.1132809,0.0351562525 V -0.30546094 c -0.65625,0 -0.773437,0 -0.773437,-0.45703125 V -2.5906172 c 0,-1.03125 0.714844,-1.59375 1.347656,-1.59375 0.621094,0 0.738281,0.5390625 0.738281,1.1015625 v 2.32031251 c 0,0.45703125 -0.117187,0.45703125 -0.773437,0.45703125 v 0.3046875025 c 0.339844,-0.0117187525 0.855469,-0.0351562525 1.125,-0.0351562525 0.257812,0 0.773437,0.0234375 1.113281,0.0351562525 V -0.30546094 c -0.667969,0 -0.785156,0 -0.785156,-0.45703125 V -2.5906172 c 0,-1.03125 0.714844,-1.59375 1.347656,-1.59375 0.632813,0 0.738281,0.5390625 0.738281,1.1015625 v 2.32031251 c 0,0.45703125 -0.105468,0.45703125 -0.773437,0.45703125 v 0.3046875025 c 0.351562,-0.0117187525 0.855469,-0.0351562525 1.125,-0.0351562525 0.257812,0 0.773437,0.0234375 1.113281,0.0351562525 V -0.30546094 c -0.515625,0 -0.761719,0 -0.773437,-0.3046875 V -2.5085859 c 0,-0.8554688 0,-1.171875 -0.316407,-1.5234375 -0.128906,-0.1757813 -0.46875,-0.375 -1.042968,-0.375 -0.832032,0 -1.277344,0.5976562 -1.441407,0.984375 -0.140625,-0.8671875 -0.878906,-0.984375 -1.324218,-0.984375 -0.726563,0 -1.195313,0.4335937 -1.476563,1.0546875 v -1.0546875 l -1.4062499,0.1171875 v 0.3046875 c 0.703125,0 0.7851562,0.070312 0.7851562,0.5625 z m 16.8134767,0.1640625 c 0.152344,0 0.339844,0 0.339844,-0.1992188 0,-0.1992187 -0.1875,-0.1992187 -0.328125,-0.1992187 h -5.964844 c -0.140625,0 -0.328125,0 -0.328125,0.1992187 0,0.1992188 0.1875,0.1992188 0.339844,0.1992188 z m 0.01172,1.9335937 c 0.140625,0 0.328125,0 0.328125,-0.1992187 0,-0.1992188 -0.1875,-0.1992188 -0.339844,-0.1992188 h -5.941406 c -0.152344,0 -0.339844,0 -0.339844,0.1992188 0,0.1992187 0.1875,0.1992187 0.328125,0.1992187 z m 6.583007,-0.3164062 v 0.86718746 c 0,0.3515625 -0.02344,0.46875 -0.761718,0.46875 h -0.210938 v 0.3046875025 c 0.410156,-0.0351562525 0.9375,-0.0351562525 1.347656,-0.0351562525 0.421875,0 0.949219,0 1.359375,0.0351562525 V -0.30546094 h -0.210937 c -0.738281,0 -0.761719,-0.1171875 -0.761719,-0.46875 V -1.6413984 h 0.996094 v -0.3164063 h -0.996094 v -4.5234375 c 0,-0.1992187 0,-0.2578125 -0.152344,-0.2578125 -0.09375,0 -0.117187,0 -0.199218,0.1171875 l -3.058594,4.6640625 v 0.3164063 z m 0.05859,-0.3164063 h -2.425781 l 2.425781,-3.7148437 z m 0,0"
       style="fill:#000000;fill-opacity:1;fill-rule:nonzero;stroke:none"
       aria-label="dim=4"
       transform="matrix(1.3333333,0,0,1.3333333,13.02,207.544)" />
    <path
       id="path17"
       d="m 136.40234,198.4414 c 0.125,-0.48437 0.15625,-0.625 1.40625,-0.625 0.40625,0 0.5,0 0.5,-0.25 0,-0.17187 -0.14062,-0.17187 -0.20312,-0.17187 -0.4375,0 -1.53125,0.0469 -1.96875,0.0469 -0.40625,0 -1.375,-0.0469 -1.76563,-0.0469 -0.0937,0 -0.25,0 -0.25,0.26562 0,0.15625 0.10938,0.15625 0.375,0.15625 0.0156,0 0.26563,0 0.5,0.0156 0.23438,0.0312 0.35938,0.0469 0.35938,0.21875 0,0.0469 -0.0156,0.0937 -0.0625,0.25 l -1.78125,7.14062 c -0.125,0.51563 -0.15625,0.625 -1.20313,0.625 -0.21875,0 -0.35937,0 -0.35937,0.26563 0,0.14062 0.125,0.14062 0.35937,0.14062 h 6.15625 c 0.3125,0 0.32813,0 0.40625,-0.21875 l 1.04688,-2.875 c 0.0625,-0.14062 0.0625,-0.17187 0.0625,-0.1875 0,-0.0469 -0.0469,-0.14062 -0.17188,-0.14062 -0.10937,0 -0.125,0.0625 -0.21875,0.28125 -0.45312,1.21875 -1.03125,2.73437 -3.32812,2.73437 h -1.25 c -0.1875,0 -0.21875,0 -0.29688,-0.0156 -0.14062,-0.0156 -0.17187,-0.0312 -0.17187,-0.14063 0,-0.0312 0,-0.0625 0.0625,-0.29687 z m 0,0"
       style="fill:#000000;fill-opacity:1;fill-rule:nonzero;stroke:none;stroke-width:1.33333" />
    <path
       id="path18"
       d="m 145.26953,205.49609 c 0,-1.01562 -0.125,-1.75 -0.54687,-2.40625 -0.29688,-0.42187 -0.85938,-0.79687 -1.60938,-0.79687 -2.15625,0 -2.15625,2.53125 -2.15625,3.20312 0,0.67188 0,3.15625 2.15625,3.15625 2.15625,0 2.15625,-2.48437 2.15625,-3.15625 z m -2.15625,2.89063 c -0.42187,0 -1,-0.25 -1.1875,-1.01563 -0.125,-0.54687 -0.125,-1.3125 -0.125,-2 0,-0.67187 0,-1.375 0.14063,-1.89062 0.20312,-0.73438 0.79687,-0.92188 1.17187,-0.92188 0.5,0 0.98438,0.29688 1.15625,0.84375 0.14063,0.5 0.15625,1.17188 0.15625,1.96875 0,0.6875 0,1.39063 -0.125,1.96875 -0.1875,0.84375 -0.8125,1.04688 -1.1875,1.04688 z m 0,0"
       style="fill:#000000;fill-opacity:1;fill-rule:nonzero;stroke:none;stroke-width:1.33333" />
    <path
       id="path19"
       d="m 297.73437,198.4414 c 0.125,-0.48437 0.15625,-0.625 1.40625,-0.625 0.40625,0 0.5,0 0.5,-0.25 0,-0.17187 -0.14062,-0.17187 -0.20312,-0.17187 -0.4375,0 -1.53125,0.0469 -1.96875,0.0469 -0.40625,0 -1.375,-0.0469 -1.76563,-0.0469 -0.0937,0 -0.25,0 -0.25,0.26562 0,0.15625 0.10938,0.15625 0.375,0.15625 0.0156,0 0.26563,0 0.5,0.0156 0.23438,0.0312 0.35938,0.0469 0.35938,0.21875 0,0.0469 -0.0156,0.0937 -0.0625,0.25 l -1.78125,7.14062 c -0.125,0.51563 -0.15625,0.625 -1.20313,0.625 -0.21875,0 -0.35937,0 -0.35937,0.26563 0,0.14062 0.125,0.14062 0.35937,0.14062 h 6.15625 c 0.3125,0 0.32813,0 0.40625,-0.21875 l 1.04688,-2.875 c 0.0625,-0.14062 0.0625,-0.17187 0.0625,-0.1875 0,-0.0469 -0.0469,-0.14062 -0.17188,-0.14062 -0.10937,0 -0.125,0.0625 -0.21875,0.28125 -0.45312,1.21875 -1.03125,2.73437 -3.32812,2.73437 h -1.25 c -0.1875,0 -0.21875,0 -0.29688,-0.0156 -0.14062,-0.0156 -0.17187,-0.0312 -0.17187,-0.14063 0,-0.0312 0,-0.0625 0.0625,-0.29687 z m 0,0"
       style="fill:#000000;fill-opacity:1;fill-rule:nonzero;stroke:none;stroke-width:1.33333" />
    <path
       id="path20"
       d="m 303.24609,203.27734 c 0.48438,0.125 0.75,0.125 0.90625,0.125 1.21875,0 1.95313,-0.84375 1.95313,-0.98437 0,-0.0937 -0.0625,-0.125 -0.10938,-0.125 -0.0156,0 -0.0469,0 -0.0781,0.0312 -0.21875,0.0781 -0.71875,0.26563 -1.40625,0.26563 -0.26562,0 -0.75,-0.0156 -1.35937,-0.25 -0.0937,-0.0469 -0.10938,-0.0469 -0.10938,-0.0469 -0.125,0 -0.125,0.0937 -0.125,0.25 v 2.75 c 0,0.15625 0,0.26562 0.14063,0.26562 0.0937,0 0.0937,-0.0156 0.1875,-0.14062 0.40625,-0.5 0.96875,-0.57813 1.29687,-0.57813 0.5625,0 0.8125,0.45313 0.85938,0.51563 0.15625,0.3125 0.21875,0.67187 0.21875,1.20312 0,0.28125 0,0.82812 -0.28125,1.23437 -0.23438,0.34376 -0.625,0.56251 -1.09375,0.56251 -0.59375,0 -1.21875,-0.34375 -1.45313,-0.95313 0.35938,0.0312 0.53125,-0.20313 0.53125,-0.45312 0,-0.40625 -0.34375,-0.46875 -0.46875,-0.46875 -0.0156,0 -0.46875,0 -0.46875,0.5 0,0.82812 0.76563,1.67187 1.89063,1.67187 1.1875,0 2.21875,-0.89063 2.21875,-2.0625 0,-1.04687 -0.79688,-2.01562 -1.9375,-2.01562 -0.42188,0 -0.90625,0.10937 -1.3125,0.45312 z m 0,0"
       style="fill:#000000;fill-opacity:1;fill-rule:nonzero;stroke:none;stroke-width:1.33333" />
    <path
       id="path21"
       d="m 3.7848047,-0.55057812 v 0.65625 L 5.2496484,2.03125e-4 V -0.30448437 c -0.703125,0 -0.7734375,-0.0703125 -0.7734375,-0.5625 V -6.9138594 l -1.4414062,0.1054688 v 0.3164062 c 0.703125,0 0.7851562,0.070312 0.7851562,0.5507813 v 2.15625 c -0.2929687,-0.3632813 -0.7265625,-0.6210938 -1.265625,-0.6210938 -1.171875,0 -2.21484371,0.984375 -2.21484371,2.2617188 0,1.26562498 0.97265621,2.24999998 2.10937501,2.24999998 0.6445312,0 1.0898437,-0.33984375 1.3359375,-0.65625 z m 0,-2.67187498 v 2.0507812 c 0,0.17578128 0,0.19921878 -0.1054688,0.36328128 -0.3046875,0.48046875 -0.75,0.703125 -1.1835937,0.703125 -0.4453125,0 -0.796875,-0.2578125 -1.0429688,-0.64453125 C 1.1949609,-1.1599531 1.1598047,-1.7224531 1.1598047,-2.1326094 c 0,-0.3632812 0.023437,-0.9609375 0.3164062,-1.4179687 0.2109375,-0.3046875 0.5859375,-0.6328125 1.125,-0.6328125 0.3515625,0 0.7617188,0.1523437 1.078125,0.5976562 0.1054688,0.1640625 0.1054688,0.1875 0.1054688,0.3632813 z m 3.5068359,-1.1835938 -1.3945312,0.1171875 v 0.3046875 c 0.65625,0 0.7382812,0.058594 0.7382812,0.5507813 v 2.67187498 c 0,0.45703125 -0.1054687,0.45703125 -0.7734375,0.45703125 V 2.03125e-4 C 6.1783594,-0.01151562 6.7174219,-0.03495312 6.9635156,-0.03495312 c 0.3398438,0 0.6914063,0.0234375 1.03125,0.035156245 V -0.30448437 c -0.65625,0 -0.703125,-0.0585938 -0.703125,-0.4453125 z m 0.046875,-1.734375 c 0,-0.3164062 -0.2460937,-0.5273437 -0.5273437,-0.5273437 -0.3164063,0 -0.5273438,0.2695312 -0.5273438,0.5273437 0,0.2695313 0.2109375,0.5273438 0.5273438,0.5273438 0.28125,0 0.5273437,-0.1992188 0.5273437,-0.5273438 z m 2.0654297,2.71875 v 2.66015628 c 0,0.45703125 -0.1171875,0.45703125 -0.7851562,0.45703125 V 2.03125e-4 c 0.3515625,-0.011718745 0.8554687,-0.035156245 1.125,-0.035156245 0.2578129,0 0.7851559,0.0234375 1.1132809,0.035156245 V -0.30448437 c -0.65625,0 -0.773437,0 -0.773437,-0.45703125 V -2.5896406 c 0,-1.03125 0.714844,-1.59375 1.347656,-1.59375 0.621094,0 0.738281,0.5390625 0.738281,1.1015625 v 2.32031248 c 0,0.45703125 -0.117187,0.45703125 -0.773437,0.45703125 V 2.03125e-4 c 0.339844,-0.011718745 0.855469,-0.035156245 1.125,-0.035156245 0.257812,0 0.773437,0.0234375 1.113281,0.035156245 V -0.30448437 c -0.667969,0 -0.785156,0 -0.785156,-0.45703125 V -2.5896406 c 0,-1.03125 0.714844,-1.59375 1.347656,-1.59375 0.632813,0 0.738281,0.5390625 0.738281,1.1015625 v 2.32031248 c 0,0.45703125 -0.105468,0.45703125 -0.773437,0.45703125 V 2.03125e-4 c 0.351562,-0.011718745 0.855469,-0.035156245 1.125,-0.035156245 0.257812,0 0.773437,0.0234375 1.113281,0.035156245 V -0.30448437 c -0.515625,0 -0.761719,0 -0.773437,-0.3046875 V -2.5076094 c 0,-0.8554687 0,-1.171875 -0.316407,-1.5234375 -0.128906,-0.1757812 -0.46875,-0.375 -1.042968,-0.375 -0.832032,0 -1.277344,0.5976563 -1.441407,0.984375 -0.140625,-0.8671875 -0.878906,-0.984375 -1.324218,-0.984375 -0.726563,0 -1.195313,0.4335938 -1.476563,1.0546875 v -1.0546875 l -1.4062499,0.1171875 v 0.3046875 c 0.703125,0 0.7851562,0.070312 0.7851562,0.5625 z m 16.8134767,0.1640625 c 0.152344,0 0.339844,0 0.339844,-0.1992187 0,-0.1992188 -0.1875,-0.1992188 -0.328125,-0.1992188 h -5.964844 c -0.140625,0 -0.328125,0 -0.328125,0.1992188 0,0.1992187 0.1875,0.1992187 0.339844,0.1992187 z m 0.01172,1.9335938 c 0.140625,0 0.328125,0 0.328125,-0.1992188 0,-0.1992187 -0.1875,-0.1992187 -0.339844,-0.1992187 h -5.941406 c -0.152344,0 -0.339844,0 -0.339844,0.1992187 0,0.1992188 0.1875,0.1992188 0.328125,0.1992188 z m 4.96582,-1.9453125 v -0.234375 c 0,-2.5195313 1.242187,-2.8828125 1.746094,-2.8828125 0.234375,0 0.65625,0.058594 0.878906,0.3984375 -0.152344,0 -0.550781,0 -0.550781,0.4453125 0,0.3164062 0.234375,0.4570312 0.457031,0.4570312 0.164062,0 0.457031,-0.082031 0.457031,-0.46875 0,-0.5976562 -0.433594,-1.078125 -1.265625,-1.078125 -1.277344,0 -2.613281,1.2890625 -2.613281,3.4804688 0,2.66015623 1.148437,3.37499998 2.074219,3.37499998 1.113281,0 2.050781,-0.9375 2.050781,-2.24999998 0,-1.265625 -0.878906,-2.2265625 -1.992188,-2.2265625 -0.667968,0 -1.042968,0.5039062 -1.242187,0.984375 z m 1.183594,3.21093748 c -0.621094,0 -0.925782,-0.59765625 -0.984375,-0.75 -0.175782,-0.46874998 -0.175782,-1.26562498 -0.175782,-1.44140628 0,-0.7734375 0.316407,-1.7695312 1.21875,-1.7695312 0.152344,0 0.609375,0 0.925782,0.609375 0.175781,0.375 0.175781,0.8789062 0.175781,1.3710937 0,0.4804688 0,0.9726563 -0.164063,1.33593753 -0.304687,0.59765625 -0.761718,0.64453125 -0.996093,0.64453125 z m 0,0"
       style="fill:#000000;fill-opacity:1;fill-rule:nonzero;stroke:none"
       aria-label="dim=6"
       transform="matrix(1.3333333,0,0,1.3333333,13.02,118.21067)" />
    <path
       id="path22"
       d="m 200.40234,109.10938 c 0.125,-0.48438 0.15625,-0.625 1.40625,-0.625 0.40625,0 0.5,0 0.5,-0.25 0,-0.17188 -0.14062,-0.17188 -0.20312,-0.17188 -0.4375,0 -1.53125,0.0469 -1.96875,0.0469 -0.40625,0 -1.375,-0.0469 -1.76563,-0.0469 -0.0937,0 -0.25,0 -0.25,0.26563 0,0.15625 0.10938,0.15625 0.375,0.15625 0.0156,0 0.26563,0 0.5,0.0156 0.23438,0.0312 0.35938,0.0469 0.35938,0.21875 0,0.0469 -0.0156,0.0937 -0.0625,0.25 l -1.78125,7.14063 c -0.125,0.51562 -0.15625,0.625 -1.20313,0.625 -0.21875,0 -0.35937,0 -0.35937,0.26562 0,0.14063 0.125,0.14063 0.35937,0.14063 h 6.15625 c 0.3125,0 0.32813,0 0.40625,-0.21875 l 1.04688,-2.875 c 0.0625,-0.14063 0.0625,-0.17188 0.0625,-0.1875 0,-0.0469 -0.0469,-0.14063 -0.17188,-0.14063 -0.10937,0 -0.125,0.0625 -0.21875,0.28125 -0.45312,1.21875 -1.03125,2.73438 -3.32812,2.73438 h -1.25 c -0.1875,0 -0.21875,0 -0.29688,-0.0156 -0.14062,-0.0156 -0.17187,-0.0312 -0.17187,-0.14063 0,-0.0312 0,-0.0625 0.0625,-0.29687 z m 0,0"
       style="fill:#000000;fill-opacity:1;fill-rule:nonzero;stroke:none;stroke-width:1.33333" />
    <path
       id="path23"
       d="m 209.39453,117.60156 v -0.32812 h -1.03125 v -4.14063 c 0,-0.20312 0,-0.26562 -0.20312,-0.26562 -0.125,0 -0.15625,0 -0.25,0.125 l -3.07813,4.28125 v 0.32812 h 2.73438 v 0.76563 c 0,0.3125 0,0.4375 -0.75,0.4375 h -0.25 v 0.32812 c 0.46875,-0.0156 1.0625,-0.0312 1.39062,-0.0312 0.34375,0 0.9375,0.0156 1.40625,0.0312 v -0.32812 h -0.25 c -0.75,0 -0.75,-0.125 -0.75,-0.4375 v -0.76563 z m -1.76562,-3.73437 v 3.40625 h -2.45313 z m 0,0"
       style="fill:#000000;fill-opacity:1;fill-rule:nonzero;stroke:none;stroke-width:1.33333" />
    <path
       id="path24"
       d="m 3.7848047,-0.54960156 v 0.65625 L 5.2496484,0.00117969 v -0.3046875 c -0.703125,0 -0.7734375,-0.0703125 -0.7734375,-0.5625 V -6.9128828 l -1.4414062,0.1054687 v 0.3164063 c 0.703125,0 0.7851562,0.070312 0.7851562,0.5507812 v 2.15625 c -0.2929687,-0.3632812 -0.7265625,-0.6210937 -1.265625,-0.6210937 -1.171875,0 -2.21484371,0.984375 -2.21484371,2.2617187 0,1.26562504 0.97265621,2.25000004 2.10937501,2.25000004 0.6445312,0 1.0898437,-0.33984375 1.3359375,-0.65625 z m 0,-2.67187504 v 2.0507813 c 0,0.17578124 0,0.19921874 -0.1054688,0.36328124 -0.3046875,0.48046875 -0.75,0.703125 -1.1835937,0.703125 -0.4453125,0 -0.796875,-0.2578125 -1.0429688,-0.64453125 C 1.1949609,-1.1589766 1.1598047,-1.7214766 1.1598047,-2.1316328 c 0,-0.3632813 0.023437,-0.9609375 0.3164062,-1.4179688 0.2109375,-0.3046875 0.5859375,-0.6328125 1.125,-0.6328125 0.3515625,0 0.7617188,0.1523438 1.078125,0.5976563 0.1054688,0.1640625 0.1054688,0.1875 0.1054688,0.3632812 z m 3.5068359,-1.1835937 -1.3945312,0.1171875 v 0.3046875 c 0.65625,0 0.7382812,0.058594 0.7382812,0.5507812 v 2.67187504 c 0,0.45703125 -0.1054687,0.45703125 -0.7734375,0.45703125 v 0.3046875 c 0.3164063,-0.01171875 0.8554688,-0.03515625 1.1015625,-0.03515625 0.3398438,0 0.6914063,0.0234375 1.03125,0.03515625 v -0.3046875 c -0.65625,0 -0.703125,-0.0585938 -0.703125,-0.4453125 z m 0.046875,-1.734375 c 0,-0.3164063 -0.2460937,-0.5273438 -0.5273437,-0.5273438 -0.3164063,0 -0.5273438,0.2695313 -0.5273438,0.5273438 0,0.2695312 0.2109375,0.5273437 0.5273438,0.5273437 0.28125,0 0.5273437,-0.1992187 0.5273437,-0.5273437 z m 2.0654297,2.71875 v 2.66015624 c 0,0.45703125 -0.1171875,0.45703125 -0.7851562,0.45703125 v 0.3046875 c 0.3515625,-0.01171875 0.8554687,-0.03515625 1.125,-0.03515625 0.2578129,0 0.7851559,0.0234375 1.1132809,0.03515625 v -0.3046875 c -0.65625,0 -0.773437,0 -0.773437,-0.45703125 V -2.5886641 c 0,-1.03125 0.714844,-1.59375 1.347656,-1.59375 0.621094,0 0.738281,0.5390625 0.738281,1.1015625 v 2.32031254 c 0,0.45703125 -0.117187,0.45703125 -0.773437,0.45703125 v 0.3046875 c 0.339844,-0.01171875 0.855469,-0.03515625 1.125,-0.03515625 0.257812,0 0.773437,0.0234375 1.113281,0.03515625 v -0.3046875 c -0.667969,0 -0.785156,0 -0.785156,-0.45703125 V -2.5886641 c 0,-1.03125 0.714844,-1.59375 1.347656,-1.59375 0.632813,0 0.738281,0.5390625 0.738281,1.1015625 v 2.32031254 c 0,0.45703125 -0.105468,0.45703125 -0.773437,0.45703125 v 0.3046875 c 0.351562,-0.01171875 0.855469,-0.03515625 1.125,-0.03515625 0.257812,0 0.773437,0.0234375 1.113281,0.03515625 v -0.3046875 c -0.515625,0 -0.761719,0 -0.773437,-0.3046875 V -2.5066328 c 0,-0.8554688 0,-1.171875 -0.316407,-1.5234375 -0.128906,-0.1757813 -0.46875,-0.375 -1.042968,-0.375 -0.832032,0 -1.277344,0.5976562 -1.441407,0.984375 -0.140625,-0.8671875 -0.878906,-0.984375 -1.324218,-0.984375 -0.726563,0 -1.195313,0.4335937 -1.476563,1.0546875 v -1.0546875 l -1.4062499,0.1171875 v 0.3046875 c 0.703125,0 0.7851562,0.070312 0.7851562,0.5625 z m 16.8134767,0.1640625 c 0.152344,0 0.339844,0 0.339844,-0.1992188 0,-0.1992187 -0.1875,-0.1992187 -0.328125,-0.1992187 h -5.964844 c -0.140625,0 -0.328125,0 -0.328125,0.1992187 0,0.1992188 0.1875,0.1992188 0.339844,0.1992188 z m 0.01172,1.9335937 c 0.140625,0 0.328125,0 0.328125,-0.1992187 0,-0.1992188 -0.1875,-0.1992188 -0.339844,-0.1992188 h -5.941406 c -0.152344,0 -0.339844,0 -0.339844,0.1992188 0,0.1992187 0.1875,0.1992187 0.328125,0.1992187 z m 5.282226,-3.2226562 c -0.46875,-0.3046875 -0.503906,-0.6445313 -0.503906,-0.8085938 0,-0.609375 0.644531,-1.03125 1.359375,-1.03125 0.726562,0 1.359375,0.515625 1.359375,1.2421875 0,0.5625 -0.386719,1.0429688 -0.984375,1.3945313 z m 1.453125,0.9375 c 0.714844,-0.3632813 1.207031,-0.8789063 1.207031,-1.5351563 0,-0.9257812 -0.890625,-1.4882812 -1.792968,-1.4882812 -0.996094,0 -1.804688,0.7382812 -1.804688,1.6640625 0,0.1757812 0.01172,0.6210937 0.433594,1.0898437 0.105469,0.1289063 0.480469,0.375 0.726562,0.5390625 -0.574218,0.2929688 -1.429687,0.84375 -1.429687,1.8398438 0,1.05468749 1.007812,1.72265624 2.0625,1.72265624 1.125,0 2.0625,-0.83203125 2.0625,-1.89843754 0,-0.3515625 -0.105469,-0.8085937 -0.480469,-1.21875 -0.1875,-0.2109375 -0.351562,-0.3164062 -0.984375,-0.7148437 z m -0.996094,0.421875 1.21875,0.7734375 c 0.28125,0.1875 0.75,0.4921875 0.75,1.1015625 0,0.73828124 -0.75,1.25390624 -1.558593,1.25390624 -0.867188,0 -1.582032,-0.62109375 -1.582032,-1.44140624 0,-0.5859375 0.316407,-1.21875 1.171875,-1.6875 z m 0,0"
       style="fill:#000000;fill-opacity:1;fill-rule:nonzero;stroke:none"
       aria-label="dim=8"
       transform="matrix(1.3333333,0,0,1.3333333,13.02,28.877333)" />
    <path
       id="path25"
       d="m 200.40234,19.777344 c 0.125,-0.484375 0.15625,-0.625 1.40625,-0.625 0.40625,0 0.5,0 0.5,-0.25 0,-0.171875 -0.14062,-0.171875 -0.20312,-0.171875 -0.4375,0 -1.53125,0.04687 -1.96875,0.04687 -0.40625,0 -1.375,-0.04687 -1.76563,-0.04687 -0.0937,0 -0.25,0 -0.25,0.265625 0,0.15625 0.10938,0.15625 0.375,0.15625 0.0156,0 0.26563,0 0.5,0.01563 0.23438,0.03125 0.35938,0.04687 0.35938,0.21875 0,0.04687 -0.0156,0.09375 -0.0625,0.25 l -1.78125,7.140624 c -0.125,0.515625 -0.15625,0.625 -1.20313,0.625 -0.21875,0 -0.35937,0 -0.35937,0.265625 0,0.140625 0.125,0.140625 0.35937,0.140625 h 6.15625 c 0.3125,0 0.32813,0 0.40625,-0.21875 l 1.04688,-2.875 c 0.0625,-0.140625 0.0625,-0.171875 0.0625,-0.1875 0,-0.04687 -0.0469,-0.140625 -0.17188,-0.140625 -0.10937,0 -0.125,0.0625 -0.21875,0.28125 -0.45312,1.21875 -1.03125,2.734375 -3.32812,2.734375 h -1.25 c -0.1875,0 -0.21875,0 -0.29688,-0.01563 -0.14062,-0.01563 -0.17187,-0.03125 -0.17187,-0.140625 0,-0.03125 0,-0.0625 0.0625,-0.296875 z m 0,0"
       style="fill:#000000;fill-opacity:1;fill-rule:nonzero;stroke:none;stroke-width:1.33333" />
    <path
       id="path26"
       d="m 209.44141,24.191407 c 0.0937,-0.125 0.0937,-0.140625 0.0937,-0.375 h -2.43749 c -0.35938,0 -0.46875,-0.01563 -0.79688,-0.04687 -0.48437,-0.03125 -0.51562,-0.09375 -0.53125,-0.25 h -0.32812 l -0.3125,1.984375 h 0.3125 c 0.0156,-0.140625 0.10937,-0.75 0.26562,-0.84375 0.0625,-0.0625 0.8125,-0.0625 0.95313,-0.0625 h 2.03125 c -0.29688,0.390625 -0.76563,0.96875 -0.96875,1.234375 -1.21875,1.59375 -1.32813,3.078125 -1.32813,3.625 0,0.109375 0,0.53125 0.4375,0.53125 0.45313,0 0.45313,-0.421875 0.45313,-0.546875 v -0.359375 c 0,-1.8125 0.35937,-2.640625 0.76562,-3.140625 z m 0,0"
       style="fill:#000000;fill-opacity:1;fill-rule:nonzero;stroke:none;stroke-width:1.33333" />
    <path
       id="path27"
       d="m 109.01794,159.6729 c 10.69359,16.34936 15.25365,22.81944 34.98952,48.80296"
       style="fill:none;stroke:#000000;stroke-width:0.3985;stroke-linecap:butt;stroke-linejoin:bevel;stroke-miterlimit:10;stroke-dasharray:none;stroke-opacity:1"
       transform="matrix(1.3333333,0,0,-1.3333333,0.26533333,405.59867)" />
    <path
       id="path28"
       d="M 3.58653,0 C 2.52383,0.19925 0.797,0.797 -0.3985,1.49438 V -1.49438 C 0.797,-0.797 2.52383,-0.19925 3.58653,0"
       style="fill:#000000;fill-opacity:1;fill-rule:nonzero;stroke:none"
       transform="matrix(0.80645333,-1.0617467,-1.0617467,-0.80645333,192.27528,127.63085)" />
    <path
       id="path29"
       d="m 197.52735,160.05468 c -0.53125,0.89063 -1.04688,1.07813 -1.625,1.125 -0.17188,0 -0.28125,0 -0.28125,0.26563 0,0.0781 0.0625,0.14062 0.17187,0.14062 0.35938,0 0.76563,-0.0469 1.14063,-0.0469 0.4375,0 0.90625,0.0469 1.32812,0.0469 0.0781,0 0.25,0 0.25,-0.25 0,-0.15625 -0.125,-0.15625 -0.21875,-0.15625 -0.29687,-0.0312 -0.60937,-0.14062 -0.60937,-0.46875 0,-0.15625 0.0781,-0.3125 0.17187,-0.5 l 1.01563,-1.6875 h 3.32812 c 0.0312,0.26563 0.21875,2.07813 0.21875,2.21875 0,0.39063 -0.6875,0.4375 -0.95312,0.4375 -0.1875,0 -0.32813,0 -0.32813,0.26563 0,0.14062 0.17188,0.14062 0.1875,0.14062 0.54688,0 1.125,-0.0469 1.67188,-0.0469 0.32812,0 1.15625,0.0469 1.5,0.0469 0.0781,0 0.23437,0 0.23437,-0.26562 0,-0.14063 -0.14062,-0.14063 -0.3125,-0.14063 -0.8125,0 -0.8125,-0.0937 -0.85937,-0.48437 l -0.8125,-8.29688 c -0.0156,-0.26562 -0.0156,-0.32812 -0.25,-0.32812 -0.21875,0 -0.26563,0.0937 -0.34375,0.23437 z m 1.59375,-1.95312 2.625,-4.375 0.42187,4.375 z m 0,0"
       style="fill:#000000;fill-opacity:1;fill-rule:nonzero;stroke:none;stroke-width:1.33333" />
    <path
       id="path30"
       d="m 208.22266,157.67187 c 0,-0.25 -0.0156,-0.26562 -0.28125,-0.26562 -0.59375,0.57812 -1.4375,0.59375 -1.8125,0.59375 v 0.32812 c 0.21875,0 0.82812,0 1.34375,-0.25 v 4.73438 c 0,0.3125 0,0.4375 -0.92188,0.4375 h -0.35937 v 0.32812 c 0.17187,-0.0156 1.3125,-0.0312 1.65625,-0.0312 0.28125,0 1.45312,0.0156 1.65625,0.0312 V 163.25 h -0.34375 c -0.9375,0 -0.9375,-0.125 -0.9375,-0.4375 z m 0,0"
       style="fill:#000000;fill-opacity:1;fill-rule:nonzero;stroke:none;stroke-width:1.33333" />
    <path
       id="path31"
       d="m 215.46485,164.77343 c 0,-0.0469 0,-0.0625 -0.21875,-0.29687 -1.65625,-1.67188 -2.09375,-4.17188 -2.09375,-6.21875 0,-2.29688 0.51562,-4.60938 2.14062,-6.28125 0.17188,-0.15625 0.17188,-0.17188 0.17188,-0.21875 0,-0.0937 -0.0469,-0.14063 -0.125,-0.14063 -0.14063,0 -1.32813,0.90625 -2.10938,2.59375 -0.6875,1.46875 -0.84375,2.9375 -0.84375,4.04688 0,1.04687 0.15625,2.65625 0.875,4.15625 0.79688,1.625 1.9375,2.5 2.07813,2.5 0.0781,0 0.125,-0.0469 0.125,-0.14063 z m 4.67968,-11.6875 c 0,-0.3125 0,-0.34375 -0.3125,-0.34375 -0.8125,0.84375 -1.98437,0.84375 -2.40625,0.84375 v 0.42188 c 0.26563,0 1.04688,0 1.73438,-0.34375 v 6.875 c 0,0.46875 -0.0469,0.64062 -1.23438,0.64062 h -0.42187 v 0.40625 c 0.46875,-0.0469 1.60937,-0.0469 2.14062,-0.0469 0.53125,0 1.6875,0 2.15625,0.0469 v -0.40625 h -0.42187 c -1.20313,0 -1.23438,-0.15625 -1.23438,-0.64062 z m 6.58204,5.17188 c 0,-1.03125 -0.15626,-2.64063 -0.875,-4.14063 -0.79688,-1.625 -1.95313,-2.5 -2.07813,-2.5 -0.0781,0 -0.14063,0.0625 -0.14063,0.14063 0,0.0469 0,0.0625 0.26563,0.3125 1.29687,1.3125 2.04687,3.42187 2.04687,6.1875 0,2.28125 -0.48437,4.60937 -2.125,6.29687 -0.1875,0.15625 -0.1875,0.17188 -0.1875,0.21875 0,0.0781 0.0625,0.14063 0.14063,0.14063 0.125,0 1.32813,-0.90625 2.10937,-2.59375 0.67188,-1.46875 0.84376,-2.9375 0.84376,-4.0625 z m 0,0"
       style="fill:#000000;fill-opacity:1;fill-rule:nonzero;stroke:none;stroke-width:1.33333" />
    <path
       id="path32"
       d="m 159.85751,85.81483 c -50.3661,4.48331 -101.13676,10.8214 -112.85693,25.18659 -4.21404,5.17006 -3.64604,9.42012 0,15.00018 2.72604,4.17006 10.88916,8.58013 44.50124,21.28052"
       style="fill:none;stroke:#000000;stroke-width:0.3985;stroke-linecap:butt;stroke-linejoin:bevel;stroke-miterlimit:10;stroke-dasharray:none;stroke-opacity:1"
       transform="matrix(1.3333333,0,0,-1.3333333,0.26533333,405.59867)" />
    <path
       id="path33"
       d="M 3.58653,0 C 2.52383,0.19925 0.797,0.797 -0.3985,1.49438 V -1.49438 C 0.797,-0.797 2.52383,-0.19925 3.58653,0"
       style="fill:#000000;fill-opacity:1;fill-rule:nonzero;stroke:none"
       transform="matrix(1.2472133,-0.47122667,-0.47122667,-1.2472133,122.26773,209.22253)" />
    <path
       id="path34"
       d="m 86.523438,245.8711 c -0.21875,0 -0.40625,0 -0.59375,0.1875 -0.203125,0.20312 -0.234375,0.42187 -0.234375,0.51562 0,0.3125 0.234375,0.46875 0.484375,0.46875 0.390625,0 0.75,-0.32812 0.75,-0.85937 0,-0.64063 -0.625,-1.14063 -1.5625,-1.14063 -1.796875,0 -3.5625,1.90625 -3.5625,3.78125 0,1.1875 0.765625,2.23438 2.15625,2.23438 1.890625,0 3.015625,-1.40625 3.015625,-1.5625 0,-0.0781 -0.09375,-0.17188 -0.171875,-0.17188 -0.0625,0 -0.09375,0.0312 -0.171875,0.125 -1.046875,1.32813 -2.5,1.32813 -2.65625,1.32813 -0.828125,0 -1.1875,-0.65625 -1.1875,-1.45313 0,-0.54687 0.265625,-1.82812 0.71875,-2.65625 0.40625,-0.75 1.140625,-1.32812 1.875,-1.32812 0.4375,0 0.953125,0.17187 1.140625,0.53125 z m 0,0"
       style="fill:#000000;fill-opacity:1;fill-rule:nonzero;stroke:none;stroke-width:1.33333" />
    <path
       id="path35"
       d="m 90.117188,247.00391 c 0,-0.25 -0.01563,-0.26563 -0.28125,-0.26563 -0.59375,0.57813 -1.4375,0.59375 -1.8125,0.59375 v 0.32813 c 0.21875,0 0.828125,0 1.34375,-0.25 v 4.73437 c 0,0.3125 0,0.4375 -0.921875,0.4375 h -0.359375 v 0.32813 c 0.171875,-0.0156 1.3125,-0.0312 1.65625,-0.0312 0.28125,0 1.453125,0.0156 1.65625,0.0312 v -0.32813 h -0.34375 c -0.9375,0 -0.9375,-0.125 -0.9375,-0.4375 z m 0,0"
       style="fill:#000000;fill-opacity:1;fill-rule:nonzero;stroke:none;stroke-width:1.33333" />
    <path
       id="path36"
       d="m 97.355469,254.10547 c 0,-0.0469 0,-0.0625 -0.21875,-0.29687 -1.65625,-1.67188 -2.09375,-4.17188 -2.09375,-6.21875 0,-2.29688 0.515624,-4.60938 2.140624,-6.28125 0.171876,-0.15625 0.171876,-0.17188 0.171876,-0.21875 0,-0.0937 -0.04688,-0.14063 -0.125,-0.14063 -0.140625,0 -1.328125,0.90625 -2.109376,2.59375 -0.687499,1.46875 -0.843749,2.9375 -0.843749,4.04688 0,1.04687 0.15625,2.65625 0.875,4.15625 0.796875,1.625 1.9375,2.5 2.078125,2.5 0.07812,0 0.125,-0.0469 0.125,-0.14063 z m 4.683591,-11.6875 c 0,-0.3125 0,-0.34375 -0.3125,-0.34375 -0.8125,0.84375 -1.984372,0.84375 -2.406248,0.84375 v 0.42188 c 0.265625,0 1.046878,0 1.734378,-0.34375 v 6.875 c 0,0.46875 -0.0469,0.64062 -1.234378,0.64062 h -0.421875 v 0.40625 c 0.468751,-0.0469 1.609373,-0.0469 2.140623,-0.0469 0.53125,0 1.6875,0 2.15625,0.0469 v -0.40625 h -0.42187 c -1.20313,0 -1.23438,-0.15625 -1.23438,-0.64062 z m 6.57813,5.17188 c 0,-1.03125 -0.15625,-2.64063 -0.875,-4.14063 -0.79688,-1.625 -1.95313,-2.5 -2.07813,-2.5 -0.0781,0 -0.14062,0.0625 -0.14062,0.14063 0,0.0469 0,0.0625 0.26562,0.3125 1.29688,1.3125 2.04688,3.42187 2.04688,6.1875 0,2.28125 -0.48438,4.60937 -2.125,6.29687 -0.1875,0.15625 -0.1875,0.17188 -0.1875,0.21875 0,0.0781 0.0625,0.14063 0.14062,0.14063 0.125,0 1.32813,-0.90625 2.10938,-2.59375 0.67187,-1.46875 0.84375,-2.9375 0.84375,-4.0625 z m 0,0"
       style="fill:#000000;fill-opacity:1;fill-rule:nonzero;stroke:none;stroke-width:1.33333" />
    <path
       id="path37"
       d="m 168.66718,92.67203 c -0.79503,18.18937 0.70498,26.83949 5.33505,33.32957 3.80006,5.32009 9.0401,9.56014 38.5168,21.1094"
       style="fill:none;stroke:#000000;stroke-width:0.3985;stroke-linecap:butt;stroke-linejoin:bevel;stroke-miterlimit:10;stroke-dasharray:none;stroke-opacity:1"
       transform="matrix(1.3333333,0,0,-1.3333333,0.26533333,405.59867)" />
    <path
       id="path38"
       d="M 3.58653,0 C 2.52383,0.19925 0.797,0.797 -0.3985,1.49438 V -1.49438 C 0.797,-0.797 2.52383,-0.19925 3.58653,0"
       style="fill:#000000;fill-opacity:1;fill-rule:nonzero;stroke:none"
       transform="matrix(1.2414,-0.48634667,-0.48634667,-1.2414,283.62401,209.45069)" />
    <path
       id="path39"
       d="m 253.52735,249.38672 c -0.53125,0.89063 -1.04688,1.07813 -1.625,1.125 -0.17188,0 -0.28125,0 -0.28125,0.26563 0,0.0781 0.0625,0.14062 0.17187,0.14062 0.35938,0 0.76563,-0.0469 1.14063,-0.0469 0.4375,0 0.90625,0.0469 1.32812,0.0469 0.0781,0 0.25,0 0.25,-0.25 0,-0.15625 -0.125,-0.15625 -0.21875,-0.15625 -0.29687,-0.0312 -0.60937,-0.14062 -0.60937,-0.46875 0,-0.15625 0.0781,-0.3125 0.17187,-0.5 l 1.01563,-1.6875 h 3.32812 c 0.0312,0.26563 0.21875,2.07813 0.21875,2.21875 0,0.39063 -0.6875,0.4375 -0.95312,0.4375 -0.1875,0 -0.32813,0 -0.32813,0.26563 0,0.14062 0.17188,0.14062 0.1875,0.14062 0.54688,0 1.125,-0.0469 1.67188,-0.0469 0.32812,0 1.15625,0.0469 1.5,0.0469 0.0781,0 0.23437,0 0.23437,-0.26562 0,-0.14063 -0.14062,-0.14063 -0.3125,-0.14063 -0.8125,0 -0.8125,-0.0937 -0.85937,-0.48437 l -0.8125,-8.29688 c -0.0156,-0.26562 -0.0156,-0.32812 -0.25,-0.32812 -0.21875,0 -0.26563,0.0937 -0.34375,0.23437 z m 1.59375,-1.95312 2.625,-4.375 0.42187,4.375 z m 0,0"
       style="fill:#000000;fill-opacity:1;fill-rule:nonzero;stroke:none;stroke-width:1.33333" />
    <path
       id="path40"
       d="m 264.22266,247.00391 c 0,-0.25 -0.0156,-0.26563 -0.28125,-0.26563 -0.59375,0.57813 -1.4375,0.59375 -1.8125,0.59375 v 0.32813 c 0.21875,0 0.82812,0 1.34375,-0.25 v 4.73437 c 0,0.3125 0,0.4375 -0.92188,0.4375 h -0.35937 v 0.32813 c 0.17187,-0.0156 1.3125,-0.0312 1.65625,-0.0312 0.28125,0 1.45312,0.0156 1.65625,0.0312 v -0.32813 h -0.34375 c -0.9375,0 -0.9375,-0.125 -0.9375,-0.4375 z m 0,0"
       style="fill:#000000;fill-opacity:1;fill-rule:nonzero;stroke:none;stroke-width:1.33333" />
    <path
       id="path41"
       d="m 271.46485,254.10547 c 0,-0.0469 0,-0.0625 -0.21875,-0.29687 -1.65625,-1.67188 -2.09375,-4.17188 -2.09375,-6.21875 0,-2.29688 0.51562,-4.60938 2.14062,-6.28125 0.17188,-0.15625 0.17188,-0.17188 0.17188,-0.21875 0,-0.0937 -0.0469,-0.14063 -0.125,-0.14063 -0.14063,0 -1.32813,0.90625 -2.10938,2.59375 -0.6875,1.46875 -0.84375,2.9375 -0.84375,4.04688 0,1.04687 0.15625,2.65625 0.875,4.15625 0.79688,1.625 1.9375,2.5 2.07813,2.5 0.0781,0 0.125,-0.0469 0.125,-0.14063 z m 4.67968,-11.6875 c 0,-0.3125 0,-0.34375 -0.3125,-0.34375 -0.8125,0.84375 -1.98437,0.84375 -2.40625,0.84375 v 0.42188 c 0.26563,0 1.04688,0 1.73438,-0.34375 v 6.875 c 0,0.46875 -0.0469,0.64062 -1.23438,0.64062 h -0.42187 v 0.40625 c 0.46875,-0.0469 1.60937,-0.0469 2.14062,-0.0469 0.53125,0 1.6875,0 2.15625,0.0469 v -0.40625 h -0.42187 c -1.20313,0 -1.23438,-0.15625 -1.23438,-0.64062 z m 6.58204,5.17188 c 0,-1.03125 -0.15626,-2.64063 -0.875,-4.14063 -0.79688,-1.625 -1.95313,-2.5 -2.07813,-2.5 -0.0781,0 -0.14063,0.0625 -0.14063,0.14063 0,0.0469 0,0.0625 0.26563,0.3125 1.29687,1.3125 2.04687,3.42187 2.04687,6.1875 0,2.28125 -0.48437,4.60937 -2.125,6.29687 -0.1875,0.15625 -0.1875,0.17188 -0.1875,0.21875 0,0.0781 0.0625,0.14063 0.14063,0.14063 0.125,0 1.32813,-0.90625 2.10937,-2.59375 0.67188,-1.46875 0.84376,-2.9375 0.84376,-4.0625 z m 0,0"
       style="fill:#000000;fill-opacity:1;fill-rule:nonzero;stroke:none;stroke-width:1.33333" />
    <path
       id="path42"
       d="m 224.85835,90.14381 c -20.25572,11.39748 -22.57575,12.20749 -24.85577,12.8575 -18.46025,5.27009 -71.44095,-4.50105 -86.00113,8.00011 -3.87004,3.32005 -6.36008,7.89011 -8.76537,29.76465"
       style="fill:none;stroke:#000000;stroke-width:0.3985;stroke-linecap:butt;stroke-linejoin:bevel;stroke-miterlimit:10;stroke-dasharray:none;stroke-opacity:1"
       transform="matrix(1.3333333,0,0,-1.3333333,0.26533333,405.59867)" />
    <path
       id="path43"
       d="M 3.58653,0 C 2.52383,0.19925 0.797,0.797 -0.3985,1.49438 V -1.49438 C 0.797,-0.797 2.52383,-0.19925 3.58653,0"
       style="fill:#000000;fill-opacity:1;fill-rule:nonzero;stroke:none"
       transform="matrix(-0.14569333,-1.3252933,-1.3252933,0.14569333,140.58011,217.91057)" />
    <path
       id="path44"
       d="m 173.52735,249.38672 c -0.53125,0.89063 -1.04688,1.07813 -1.625,1.125 -0.17188,0 -0.28125,0 -0.28125,0.26563 0,0.0781 0.0625,0.14062 0.17187,0.14062 0.35938,0 0.76563,-0.0469 1.14063,-0.0469 0.4375,0 0.90625,0.0469 1.32812,0.0469 0.0781,0 0.25,0 0.25,-0.25 0,-0.15625 -0.125,-0.15625 -0.21875,-0.15625 -0.29687,-0.0312 -0.60937,-0.14062 -0.60937,-0.46875 0,-0.15625 0.0781,-0.3125 0.17187,-0.5 l 1.01563,-1.6875 h 3.32812 c 0.0312,0.26563 0.21875,2.07813 0.21875,2.21875 0,0.39063 -0.6875,0.4375 -0.95312,0.4375 -0.1875,0 -0.32813,0 -0.32813,0.26563 0,0.14062 0.17188,0.14062 0.1875,0.14062 0.54688,0 1.125,-0.0469 1.67188,-0.0469 0.32812,0 1.15625,0.0469 1.5,0.0469 0.0781,0 0.23437,0 0.23437,-0.26562 0,-0.14063 -0.14062,-0.14063 -0.3125,-0.14063 -0.8125,0 -0.8125,-0.0937 -0.85937,-0.48437 l -0.8125,-8.29688 c -0.0156,-0.26562 -0.0156,-0.32812 -0.25,-0.32812 -0.21875,0 -0.26563,0.0937 -0.34375,0.23437 z m 1.59375,-1.95312 2.625,-4.375 0.42187,4.375 z m 0,0"
       style="fill:#000000;fill-opacity:1;fill-rule:nonzero;stroke:none;stroke-width:1.33333" />
    <path
       id="path45"
       d="m 184.22266,247.00391 c 0,-0.25 -0.0156,-0.26563 -0.28125,-0.26563 -0.59375,0.57813 -1.4375,0.59375 -1.8125,0.59375 v 0.32813 c 0.21875,0 0.82812,0 1.34375,-0.25 v 4.73437 c 0,0.3125 0,0.4375 -0.92188,0.4375 h -0.35937 v 0.32813 c 0.17187,-0.0156 1.3125,-0.0312 1.65625,-0.0312 0.28125,0 1.45312,0.0156 1.65625,0.0312 v -0.32813 h -0.34375 c -0.9375,0 -0.9375,-0.125 -0.9375,-0.4375 z m 0,0"
       style="fill:#000000;fill-opacity:1;fill-rule:nonzero;stroke:none;stroke-width:1.33333" />
    <path
       id="path46"
       d="m 191.46485,254.10547 c 0,-0.0469 0,-0.0625 -0.21875,-0.29687 -1.65625,-1.67188 -2.09375,-4.17188 -2.09375,-6.21875 0,-2.29688 0.51562,-4.60938 2.14062,-6.28125 0.17188,-0.15625 0.17188,-0.17188 0.17188,-0.21875 0,-0.0937 -0.0469,-0.14063 -0.125,-0.14063 -0.14063,0 -1.32813,0.90625 -2.10938,2.59375 -0.6875,1.46875 -0.84375,2.9375 -0.84375,4.04688 0,1.04687 0.15625,2.65625 0.875,4.15625 0.79688,1.625 1.9375,2.5 2.07813,2.5 0.0781,0 0.125,-0.0469 0.125,-0.14063 z m 4.67968,-11.6875 c 0,-0.3125 0,-0.34375 -0.3125,-0.34375 -0.8125,0.84375 -1.98437,0.84375 -2.40625,0.84375 v 0.42188 c 0.26563,0 1.04688,0 1.73438,-0.34375 v 6.875 c 0,0.46875 -0.0469,0.64062 -1.23438,0.64062 h -0.42187 v 0.40625 c 0.46875,-0.0469 1.60937,-0.0469 2.14062,-0.0469 0.53125,0 1.6875,0 2.15625,0.0469 v -0.40625 h -0.42187 c -1.20313,0 -1.23438,-0.15625 -1.23438,-0.64062 z m 6.58204,5.17188 c 0,-1.03125 -0.15626,-2.64063 -0.875,-4.14063 -0.79688,-1.625 -1.95313,-2.5 -2.07813,-2.5 -0.0781,0 -0.14063,0.0625 -0.14063,0.14063 0,0.0469 0,0.0625 0.26563,0.3125 1.29687,1.3125 2.04687,3.42187 2.04687,6.1875 0,2.28125 -0.48437,4.60937 -2.125,6.29687 -0.1875,0.15625 -0.1875,0.17188 -0.1875,0.21875 0,0.0781 0.0625,0.14063 0.14063,0.14063 0.125,0 1.32813,-0.90625 2.10937,-2.59375 0.67188,-1.46875 0.84376,-2.9375 0.84376,-4.0625 z m 0,0"
       style="fill:#000000;fill-opacity:1;fill-rule:nonzero;stroke:none;stroke-width:1.33333" />
    <path
       id="path47"
       d="m 232.9835,92.67203 c -2.23054,16.77937 -3.25056,24.16946 -6.4711,48.10467"
       style="fill:none;stroke:#000000;stroke-width:0.3985;stroke-linecap:butt;stroke-linejoin:bevel;stroke-miterlimit:10;stroke-dasharray:none;stroke-opacity:1"
       transform="matrix(1.3333333,0,0,-1.3333333,0.26533333,405.59867)" />
    <path
       id="path48"
       d="M 3.58653,0 C 2.52383,0.19925 0.797,0.797 -0.3985,1.49438 V -1.49438 C 0.797,-0.797 2.52383,-0.19925 3.58653,0"
       style="fill:#000000;fill-opacity:1;fill-rule:nonzero;stroke:none"
       transform="matrix(-0.17777333,-1.3213467,-1.3213467,0.17777333,302.28187,217.89641)" />
    <path
       id="path49"
       d="m 328.1914,249.38672 c -0.53125,0.89063 -1.04687,1.07813 -1.625,1.125 -0.17187,0 -0.28125,0 -0.28125,0.26563 0,0.0781 0.0625,0.14062 0.17188,0.14062 0.35937,0 0.76562,-0.0469 1.14062,-0.0469 0.4375,0 0.90625,0.0469 1.32813,0.0469 0.0781,0 0.25,0 0.25,-0.25 0,-0.15625 -0.125,-0.15625 -0.21875,-0.15625 -0.29688,-0.0312 -0.60938,-0.14062 -0.60938,-0.46875 0,-0.15625 0.0781,-0.3125 0.17188,-0.5 l 1.01562,-1.6875 h 3.32813 c 0.0312,0.26563 0.21875,2.07813 0.21875,2.21875 0,0.39063 -0.6875,0.4375 -0.95313,0.4375 -0.1875,0 -0.32812,0 -0.32812,0.26563 0,0.14062 0.17187,0.14062 0.1875,0.14062 0.54687,0 1.125,-0.0469 1.67187,-0.0469 0.32813,0 1.15625,0.0469 1.5,0.0469 0.0781,0 0.23438,0 0.23438,-0.26562 0,-0.14063 -0.14063,-0.14063 -0.3125,-0.14063 -0.8125,0 -0.8125,-0.0937 -0.85938,-0.48437 l -0.8125,-8.29688 c -0.0156,-0.26562 -0.0156,-0.32812 -0.25,-0.32812 -0.21875,0 -0.26562,0.0937 -0.34375,0.23437 z m 1.59375,-1.95312 2.625,-4.375 0.42188,4.375 z m 0,0"
       style="fill:#000000;fill-opacity:1;fill-rule:nonzero;stroke:none;stroke-width:1.33333" />
    <path
       id="path50"
       d="m 338.89062,247.00391 c 0,-0.25 -0.0156,-0.26563 -0.28125,-0.26563 -0.59375,0.57813 -1.4375,0.59375 -1.8125,0.59375 v 0.32813 c 0.21875,0 0.82813,0 1.34375,-0.25 v 4.73437 c 0,0.3125 0,0.4375 -0.92187,0.4375 h -0.35938 v 0.32813 c 0.17188,-0.0156 1.3125,-0.0312 1.65625,-0.0312 0.28125,0 1.45313,0.0156 1.65625,0.0312 v -0.32813 h -0.34375 c -0.9375,0 -0.9375,-0.125 -0.9375,-0.4375 z m 0,0"
       style="fill:#000000;fill-opacity:1;fill-rule:nonzero;stroke:none;stroke-width:1.33333" />
    <path
       id="path51"
       d="m 346.1289,254.10547 c 0,-0.0469 0,-0.0625 -0.21875,-0.29687 -1.65625,-1.67188 -2.09375,-4.17188 -2.09375,-6.21875 0,-2.29688 0.51563,-4.60938 2.14063,-6.28125 0.17187,-0.15625 0.17187,-0.17188 0.17187,-0.21875 0,-0.0937 -0.0469,-0.14063 -0.125,-0.14063 -0.14062,0 -1.32812,0.90625 -2.10937,2.59375 -0.6875,1.46875 -0.84375,2.9375 -0.84375,4.04688 0,1.04687 0.15625,2.65625 0.875,4.15625 0.79687,1.625 1.9375,2.5 2.07812,2.5 0.0781,0 0.125,-0.0469 0.125,-0.14063 z m 4.6836,-11.6875 c 0,-0.3125 0,-0.34375 -0.3125,-0.34375 -0.8125,0.84375 -1.98438,0.84375 -2.40625,0.84375 v 0.42188 c 0.26562,0 1.04687,0 1.73437,-0.34375 v 6.875 c 0,0.46875 -0.0469,0.64062 -1.23437,0.64062 h -0.42188 v 0.40625 c 0.46875,-0.0469 1.60938,-0.0469 2.14063,-0.0469 0.53125,0 1.6875,0 2.15625,0.0469 v -0.40625 h -0.42188 c -1.20312,0 -1.23437,-0.15625 -1.23437,-0.64062 z m 6.57812,5.17188 c 0,-1.03125 -0.15625,-2.64063 -0.875,-4.14063 -0.79687,-1.625 -1.95312,-2.5 -2.07812,-2.5 -0.0781,0 -0.14063,0.0625 -0.14063,0.14063 0,0.0469 0,0.0625 0.26563,0.3125 1.29687,1.3125 2.04687,3.42187 2.04687,6.1875 0,2.28125 -0.48437,4.60937 -2.125,6.29687 -0.1875,0.15625 -0.1875,0.17188 -0.1875,0.21875 0,0.0781 0.0625,0.14063 0.14063,0.14063 0.125,0 1.32812,-0.90625 2.10937,-2.59375 0.67188,-1.46875 0.84375,-2.9375 0.84375,-4.0625 z m 0,0"
       style="fill:#000000;fill-opacity:1;fill-rule:nonzero;stroke:none;stroke-width:1.33333" />
    <path
       id="path52"
       d="m 224.85835,21.01279 c -27.69581,9.12658 -37.91595,14.78965 -44.85605,22.98776 -3.21005,3.78505 -5.48005,8.42911 -9.1013,29.79365"
       style="fill:none;stroke:#000000;stroke-width:0.3985;stroke-linecap:butt;stroke-linejoin:bevel;stroke-miterlimit:10;stroke-dasharray:none;stroke-opacity:1"
       transform="matrix(1.3333333,0,0,-1.3333333,0.26533333,405.59867)" />
    <path
       id="path53"
       d="M 3.58653,0 C 2.52383,0.19925 0.797,0.797 -0.3985,1.49438 V -1.49438 C 0.797,-0.797 2.52383,-0.19925 3.58653,0"
       style="fill:#000000;fill-opacity:1;fill-rule:nonzero;stroke:none"
       transform="matrix(-0.22277333,-1.31452,-1.31452,0.22277333,228.13336,307.2064)" />
    <path
       id="path54"
       d="m 261.52735,338.72266 c -0.53125,0.89062 -1.04688,1.07812 -1.625,1.125 -0.17188,0 -0.28125,0 -0.28125,0.26562 0,0.0781 0.0625,0.14063 0.17187,0.14063 0.35938,0 0.76563,-0.0469 1.14063,-0.0469 0.4375,0 0.90625,0.0469 1.32812,0.0469 0.0781,0 0.25,0 0.25,-0.25 0,-0.15625 -0.125,-0.15625 -0.21875,-0.15625 -0.29687,-0.0312 -0.60937,-0.14063 -0.60937,-0.46875 0,-0.15625 0.0781,-0.3125 0.17187,-0.5 l 1.01563,-1.6875 h 3.32812 c 0.0312,0.26562 0.21875,2.07812 0.21875,2.21875 0,0.39062 -0.6875,0.4375 -0.95312,0.4375 -0.1875,0 -0.32813,0 -0.32813,0.26562 0,0.14063 0.17188,0.14063 0.1875,0.14063 0.54688,0 1.125,-0.0469 1.67188,-0.0469 0.32812,0 1.15625,0.0469 1.5,0.0469 0.0781,0 0.23437,0 0.23437,-0.26563 0,-0.14062 -0.14062,-0.14062 -0.3125,-0.14062 -0.8125,0 -0.8125,-0.0937 -0.85937,-0.48438 l -0.8125,-8.29687 c -0.0156,-0.26563 -0.0156,-0.32813 -0.25,-0.32813 -0.21875,0 -0.26563,0.0937 -0.34375,0.23438 z m 1.59375,-1.95313 2.625,-4.375 0.42187,4.375 z m 0,0"
       style="fill:#000000;fill-opacity:1;fill-rule:nonzero;stroke:none;stroke-width:1.33333" />
    <path
       id="path55"
       d="m 272.22266,336.33984 c 0,-0.25 -0.0156,-0.26562 -0.28125,-0.26562 -0.59375,0.57812 -1.4375,0.59375 -1.8125,0.59375 v 0.32812 c 0.21875,0 0.82812,0 1.34375,-0.25 v 4.73438 c 0,0.3125 0,0.4375 -0.92188,0.4375 h -0.35937 v 0.32812 c 0.17187,-0.0156 1.3125,-0.0312 1.65625,-0.0312 0.28125,0 1.45312,0.0156 1.65625,0.0312 v -0.32812 h -0.34375 c -0.9375,0 -0.9375,-0.125 -0.9375,-0.4375 z m 0,0"
       style="fill:#000000;fill-opacity:1;fill-rule:nonzero;stroke:none;stroke-width:1.33333" />
    <path
       id="path56"
       d="m 279.46485,343.44141 c 0,-0.0469 0,-0.0625 -0.21875,-0.29688 -1.65625,-1.67187 -2.09375,-4.17187 -2.09375,-6.21875 0,-2.29687 0.51562,-4.60937 2.14062,-6.28125 0.17188,-0.15625 0.17188,-0.17187 0.17188,-0.21875 0,-0.0937 -0.0469,-0.14062 -0.125,-0.14062 -0.14063,0 -1.32813,0.90625 -2.10938,2.59375 -0.6875,1.46875 -0.84375,2.9375 -0.84375,4.04687 0,1.04688 0.15625,2.65625 0.875,4.15625 0.79688,1.625 1.9375,2.5 2.07813,2.5 0.0781,0 0.125,-0.0469 0.125,-0.14062 z m 4.67968,-11.6875 c 0,-0.3125 0,-0.34375 -0.3125,-0.34375 -0.8125,0.84375 -1.98437,0.84375 -2.40625,0.84375 v 0.42187 c 0.26563,0 1.04688,0 1.73438,-0.34375 v 6.875 c 0,0.46875 -0.0469,0.64063 -1.23438,0.64063 h -0.42187 v 0.40625 c 0.46875,-0.0469 1.60937,-0.0469 2.14062,-0.0469 0.53125,0 1.6875,0 2.15625,0.0469 v -0.40625 h -0.42187 c -1.20313,0 -1.23438,-0.15625 -1.23438,-0.64063 z m 6.58204,5.17187 c 0,-1.03125 -0.15626,-2.64062 -0.875,-4.14062 -0.79688,-1.625 -1.95313,-2.5 -2.07813,-2.5 -0.0781,0 -0.14063,0.0625 -0.14063,0.14062 0,0.0469 0,0.0625 0.26563,0.3125 1.29687,1.3125 2.04687,3.42188 2.04687,6.1875 0,2.28125 -0.48437,4.60938 -2.125,6.29688 -0.1875,0.15625 -0.1875,0.17187 -0.1875,0.21875 0,0.0781 0.0625,0.14062 0.14063,0.14062 0.125,0 1.32813,-0.90625 2.10937,-2.59375 0.67188,-1.46875 0.84376,-2.9375 0.84376,-4.0625 z m 0,0"
       style="fill:#000000;fill-opacity:1;fill-rule:nonzero;stroke:none;stroke-width:1.33333" />
    <path
       id="path57"
       d="m 234.00299,25.67116 c 0,16.62738 0,23.82947 0,48.07243"
       style="fill:none;stroke:#000000;stroke-width:0.3985;stroke-linecap:butt;stroke-linejoin:bevel;stroke-miterlimit:10;stroke-dasharray:none;stroke-opacity:1"
       transform="matrix(1.3333333,0,0,-1.3333333,0.26533333,405.59867)" />
    <path
       id="path58"
       d="M 3.58653,0 C 2.52383,0.19925 0.797,0.797 -0.3985,1.49438 V -1.49438 C 0.797,-0.797 2.52383,-0.19925 3.58653,0"
       style="fill:#000000;fill-opacity:1;fill-rule:nonzero;stroke:none"
       transform="matrix(0,-1.3333333,-1.3333333,0,312.26932,307.27388)" />
    <path
       id="path59"
       d="m 333.52735,338.72266 c -0.53125,0.89062 -1.04688,1.07812 -1.625,1.125 -0.17188,0 -0.28125,0 -0.28125,0.26562 0,0.0781 0.0625,0.14063 0.17187,0.14063 0.35938,0 0.76563,-0.0469 1.14063,-0.0469 0.4375,0 0.90625,0.0469 1.32812,0.0469 0.0781,0 0.25,0 0.25,-0.25 0,-0.15625 -0.125,-0.15625 -0.21875,-0.15625 -0.29687,-0.0312 -0.60937,-0.14063 -0.60937,-0.46875 0,-0.15625 0.0781,-0.3125 0.17187,-0.5 l 1.01563,-1.6875 h 3.32812 c 0.0312,0.26562 0.21875,2.07812 0.21875,2.21875 0,0.39062 -0.6875,0.4375 -0.95312,0.4375 -0.1875,0 -0.32813,0 -0.32813,0.26562 0,0.14063 0.17188,0.14063 0.1875,0.14063 0.54688,0 1.125,-0.0469 1.67188,-0.0469 0.32812,0 1.15625,0.0469 1.5,0.0469 0.0781,0 0.23437,0 0.23437,-0.26563 0,-0.14062 -0.14062,-0.14062 -0.3125,-0.14062 -0.8125,0 -0.8125,-0.0937 -0.85937,-0.48438 l -0.8125,-8.29687 c -0.0156,-0.26563 -0.0156,-0.32813 -0.25,-0.32813 -0.21875,0 -0.26563,0.0937 -0.34375,0.23438 z m 1.59375,-1.95313 2.625,-4.375 0.42187,4.375 z m 0,0"
       style="fill:#000000;fill-opacity:1;fill-rule:nonzero;stroke:none;stroke-width:1.33333" />
    <path
       id="path60"
       d="m 344.22266,336.33984 c 0,-0.25 -0.0156,-0.26562 -0.28125,-0.26562 -0.59375,0.57812 -1.4375,0.59375 -1.8125,0.59375 v 0.32812 c 0.21875,0 0.82812,0 1.34375,-0.25 v 4.73438 c 0,0.3125 0,0.4375 -0.92188,0.4375 h -0.35937 v 0.32812 c 0.17187,-0.0156 1.3125,-0.0312 1.65625,-0.0312 0.28125,0 1.45312,0.0156 1.65625,0.0312 v -0.32812 h -0.34375 c -0.9375,0 -0.9375,-0.125 -0.9375,-0.4375 z m 0,0"
       style="fill:#000000;fill-opacity:1;fill-rule:nonzero;stroke:none;stroke-width:1.33333" />
    <path
       id="path61"
       d="m 351.46485,343.44141 c 0,-0.0469 0,-0.0625 -0.21875,-0.29688 -1.65625,-1.67187 -2.09375,-4.17187 -2.09375,-6.21875 0,-2.29687 0.51562,-4.60937 2.14062,-6.28125 0.17188,-0.15625 0.17188,-0.17187 0.17188,-0.21875 0,-0.0937 -0.0469,-0.14062 -0.125,-0.14062 -0.14063,0 -1.32813,0.90625 -2.10938,2.59375 -0.6875,1.46875 -0.84375,2.9375 -0.84375,4.04687 0,1.04688 0.15625,2.65625 0.875,4.15625 0.79688,1.625 1.9375,2.5 2.07813,2.5 0.0781,0 0.125,-0.0469 0.125,-0.14062 z m 4.67968,-11.6875 c 0,-0.3125 0,-0.34375 -0.3125,-0.34375 -0.8125,0.84375 -1.98437,0.84375 -2.40625,0.84375 v 0.42187 c 0.26563,0 1.04688,0 1.73438,-0.34375 v 6.875 c 0,0.46875 -0.0469,0.64063 -1.23438,0.64063 h -0.42187 v 0.40625 c 0.46875,-0.0469 1.60937,-0.0469 2.14062,-0.0469 0.53125,0 1.6875,0 2.15625,0.0469 v -0.40625 h -0.42187 c -1.20313,0 -1.23438,-0.15625 -1.23438,-0.64063 z m 6.58204,5.17187 c 0,-1.03125 -0.15626,-2.64062 -0.875,-4.14062 -0.79688,-1.625 -1.95313,-2.5 -2.07813,-2.5 -0.0781,0 -0.14063,0.0625 -0.14063,0.14062 0,0.0469 0,0.0625 0.26563,0.3125 1.29687,1.3125 2.04687,3.42188 2.04687,6.1875 0,2.28125 -0.48437,4.60938 -2.125,6.29688 -0.1875,0.15625 -0.1875,0.17187 -0.1875,0.21875 0,0.0781 0.0625,0.14062 0.14063,0.14062 0.125,0 1.32813,-0.90625 2.10937,-2.59375 0.67188,-1.46875 0.84376,-2.9375 0.84376,-4.0625 z m 0,0"
       style="fill:#000000;fill-opacity:1;fill-rule:nonzero;stroke:none;stroke-width:1.33333" />
    <path
       id="path62"
       d="m 243.14764,21.01279 c 27.69584,9.12658 37.91597,14.78965 44.85606,22.98776 3.21005,3.78505 5.48006,8.42911 9.10131,29.79365"
       style="fill:none;stroke:#000000;stroke-width:0.3985;stroke-linecap:butt;stroke-linejoin:bevel;stroke-miterlimit:10;stroke-dasharray:none;stroke-opacity:1"
       transform="matrix(1.3333333,0,0,-1.3333333,0.26533333,405.59867)" />
    <path
       id="path63"
       d="M 3.58653,0 C 2.52383,0.19925 0.797,0.797 -0.3985,1.49438 V -1.49438 C 0.797,-0.797 2.52383,-0.19925 3.58653,0"
       style="fill:#000000;fill-opacity:1;fill-rule:nonzero;stroke:none"
       transform="matrix(0.22277333,-1.31452,-1.31452,-0.22277333,396.40533,307.2064)" />
    <path
       id="path64"
       d="m 414.85937,338.72266 c -0.53125,0.89062 -1.04687,1.07812 -1.625,1.125 -0.17187,0 -0.28125,0 -0.28125,0.26562 0,0.0781 0.0625,0.14063 0.17188,0.14063 0.35937,0 0.76562,-0.0469 1.14062,-0.0469 0.4375,0 0.90625,0.0469 1.32813,0.0469 0.0781,0 0.25,0 0.25,-0.25 0,-0.15625 -0.125,-0.15625 -0.21875,-0.15625 -0.29688,-0.0312 -0.60938,-0.14063 -0.60938,-0.46875 0,-0.15625 0.0781,-0.3125 0.17188,-0.5 l 1.01562,-1.6875 h 3.32813 c 0.0312,0.26562 0.21875,2.07812 0.21875,2.21875 0,0.39062 -0.6875,0.4375 -0.95313,0.4375 -0.1875,0 -0.32812,0 -0.32812,0.26562 0,0.14063 0.17187,0.14063 0.1875,0.14063 0.54687,0 1.125,-0.0469 1.67187,-0.0469 0.32813,0 1.15625,0.0469 1.5,0.0469 0.0781,0 0.23438,0 0.23438,-0.26563 0,-0.14062 -0.14063,-0.14062 -0.3125,-0.14062 -0.8125,0 -0.8125,-0.0937 -0.85938,-0.48438 l -0.8125,-8.29687 c -0.0156,-0.26563 -0.0156,-0.32813 -0.25,-0.32813 -0.21875,0 -0.26562,0.0937 -0.34375,0.23438 z m 1.59375,-1.95313 2.625,-4.375 0.42188,4.375 z m 0,0"
       style="fill:#000000;fill-opacity:1;fill-rule:nonzero;stroke:none;stroke-width:1.33333" />
    <path
       id="path65"
       d="m 425.55469,336.33984 c 0,-0.25 -0.0156,-0.26562 -0.28125,-0.26562 -0.59375,0.57812 -1.4375,0.59375 -1.8125,0.59375 v 0.32812 c 0.21875,0 0.82812,0 1.34375,-0.25 v 4.73438 c 0,0.3125 0,0.4375 -0.92188,0.4375 h -0.35937 v 0.32812 c 0.17187,-0.0156 1.3125,-0.0312 1.65625,-0.0312 0.28125,0 1.45312,0.0156 1.65625,0.0312 v -0.32812 h -0.34375 c -0.9375,0 -0.9375,-0.125 -0.9375,-0.4375 z m 0,0"
       style="fill:#000000;fill-opacity:1;fill-rule:nonzero;stroke:none;stroke-width:1.33333" />
    <path
       id="path66"
       d="m 432.79687,343.44141 c 0,-0.0469 0,-0.0625 -0.21875,-0.29688 -1.65625,-1.67187 -2.09375,-4.17187 -2.09375,-6.21875 0,-2.29687 0.51563,-4.60937 2.14063,-6.28125 0.17187,-0.15625 0.17187,-0.17187 0.17187,-0.21875 0,-0.0937 -0.0469,-0.14062 -0.125,-0.14062 -0.14062,0 -1.32812,0.90625 -2.10937,2.59375 -0.6875,1.46875 -0.84375,2.9375 -0.84375,4.04687 0,1.04688 0.15625,2.65625 0.875,4.15625 0.79687,1.625 1.9375,2.5 2.07812,2.5 0.0781,0 0.125,-0.0469 0.125,-0.14062 z m 4.6836,-11.6875 c 0,-0.3125 0,-0.34375 -0.3125,-0.34375 -0.8125,0.84375 -1.98438,0.84375 -2.40625,0.84375 v 0.42187 c 0.26562,0 1.04687,0 1.73437,-0.34375 v 6.875 c 0,0.46875 -0.0469,0.64063 -1.23437,0.64063 h -0.42188 v 0.40625 c 0.46875,-0.0469 1.60938,-0.0469 2.14063,-0.0469 0.53125,0 1.6875,0 2.15625,0.0469 v -0.40625 h -0.42188 c -1.20312,0 -1.23437,-0.15625 -1.23437,-0.64063 z m 6.57812,5.17187 c 0,-1.03125 -0.15625,-2.64062 -0.875,-4.14062 -0.79687,-1.625 -1.95312,-2.5 -2.07812,-2.5 -0.0781,0 -0.14063,0.0625 -0.14063,0.14062 0,0.0469 0,0.0625 0.26563,0.3125 1.29687,1.3125 2.04687,3.42188 2.04687,6.1875 0,2.28125 -0.48437,4.60938 -2.125,6.29688 -0.1875,0.15625 -0.1875,0.17187 -0.1875,0.21875 0,0.0781 0.0625,0.14062 0.14063,0.14062 0.125,0 1.32812,-0.90625 2.10937,-2.59375 0.67188,-1.46875 0.84375,-2.9375 0.84375,-4.0625 z m 0,0"
       style="fill:#000000;fill-opacity:1;fill-rule:nonzero;stroke:none;stroke-width:1.33333" />
    <path
       id="path67"
       d="m 152.00194,226.67375 c 0,16.62938 0,23.82945 0,48.07244"
       style="fill:none;stroke:#000000;stroke-width:0.3985;stroke-linecap:butt;stroke-linejoin:bevel;stroke-miterlimit:10;stroke-dasharray:none;stroke-opacity:1"
       transform="matrix(1.3333333,0,0,-1.3333333,0.26533333,405.59867)" />
    <path
       id="path68"
       d="M 3.58653,0 C 2.52383,0.19925 0.797,0.797 -0.3985,1.49438 V -1.49438 C 0.797,-0.797 2.52383,-0.19925 3.58653,0"
       style="fill:#000000;fill-opacity:1;fill-rule:nonzero;stroke:none"
       transform="matrix(0,-1.3333333,-1.3333333,0,202.93459,39.270413)" />
    <path
       id="path69"
       d="m 223.41016,71.222656 c -0.125,0.515625 -0.15625,0.625 -1.20313,0.625 -0.23437,0 -0.375,0 -0.375,0.25 0,0.15625 0.125,0.15625 0.375,0.15625 h 4.39063 c 2.76562,0 5.375,-2.796875 5.375,-5.71875 0,-1.859375 -1.125,-3.359375 -3.10938,-3.359375 h -4.46875 c -0.25,0 -0.39062,0 -0.39062,0.265625 0,0.15625 0.10937,0.15625 0.375,0.15625 0.17187,0 0.42187,0.01563 0.57812,0.01563 0.20313,0.03125 0.28125,0.07813 0.28125,0.21875 0,0.04687 0,0.09375 -0.0469,0.25 z m 2.875,-7.125 c 0.10937,-0.46875 0.14062,-0.5 0.71875,-0.5 h 1.42187 c 1.29688,0 2.39063,0.703125 2.39063,2.453125 0,0.65625 -0.26563,2.828125 -1.39063,4.296875 -0.375,0.484375 -1.4375,1.5 -3.0625,1.5 h -1.5 c -0.1875,0 -0.21875,0 -0.29687,-0.01563 -0.125,-0.01563 -0.17188,-0.03125 -0.17188,-0.140625 0,-0.03125 0,-0.0625 0.0625,-0.296875 z m 0,0"
       style="fill:#000000;fill-opacity:1;fill-rule:nonzero;stroke:none;stroke-width:1.33333" />
    <path
       id="path70"
       d="m 237.21875,72.714844 v -0.328125 h -1.03125 v -4.140625 c 0,-0.203125 0,-0.265625 -0.20313,-0.265625 -0.125,0 -0.15625,0 -0.25,0.125 l -3.07812,4.28125 v 0.328125 h 2.73437 v 0.765625 c 0,0.3125 0,0.4375 -0.75,0.4375 h -0.25 v 0.328125 c 0.46875,-0.01563 1.0625,-0.03125 1.39063,-0.03125 0.34375,0 0.9375,0.01563 1.40625,0.03125 v -0.328125 h -0.25 c -0.75,0 -0.75,-0.125 -0.75,-0.4375 v -0.765625 z m -1.76563,-3.734375 v 3.40625 H 233 Z m 0,0"
       style="fill:#000000;fill-opacity:1;fill-rule:nonzero;stroke:none;stroke-width:1.33333" />
    <path
       id="path71"
       d="m 242.64844,75.441406 c 0,-0.04687 0,-0.0625 -0.21875,-0.296875 -1.65625,-1.671875 -2.09375,-4.171875 -2.09375,-6.21875 0,-2.296875 0.51562,-4.609375 2.14062,-6.28125 0.17188,-0.15625 0.17188,-0.171874 0.17188,-0.21875 0,-0.09375 -0.0469,-0.140624 -0.125,-0.140624 -0.14063,0 -1.32813,0.906249 -2.10938,2.593749 -0.6875,1.46875 -0.84375,2.9375 -0.84375,4.046875 0,1.046875 0.15625,2.65625 0.875,4.15625 0.79688,1.625 1.9375,2.5 2.07813,2.5 0.0781,0 0.125,-0.04687 0.125,-0.140625 z m 4.67968,-11.6875 c 0,-0.3125 0,-0.34375 -0.3125,-0.34375 -0.8125,0.84375 -1.98437,0.84375 -2.40625,0.84375 v 0.421875 c 0.26563,0 1.04688,0 1.73438,-0.34375 v 6.875 c 0,0.46875 -0.0469,0.640625 -1.23438,0.640625 h -0.42187 v 0.40625 c 0.46875,-0.04687 1.60937,-0.04687 2.14062,-0.04687 0.53125,0 1.6875,0 2.15625,0.04687 v -0.40625 h -0.42187 c -1.20313,0 -1.23438,-0.15625 -1.23438,-0.640625 z m 6.58204,5.171875 c 0,-1.03125 -0.15625,-2.640625 -0.875,-4.140625 -0.79688,-1.625 -1.95313,-2.499999 -2.07813,-2.499999 -0.0781,0 -0.14062,0.0625 -0.14062,0.140624 0,0.04687 0,0.0625 0.26562,0.3125 1.29688,1.3125 2.04688,3.421875 2.04688,6.1875 0,2.28125 -0.48438,4.609375 -2.125,6.296875 -0.1875,0.15625 -0.1875,0.171875 -0.1875,0.21875 0,0.07813 0.0625,0.140625 0.14062,0.140625 0.125,0 1.32813,-0.90625 2.10938,-2.59375 0.67187,-1.46875 0.84375,-2.9375 0.84375,-4.0625 z m 0,0"
       style="fill:#000000;fill-opacity:1;fill-rule:nonzero;stroke:none;stroke-width:1.33333" />
    <path
       id="path72"
       d="m 217.23703,159.6729 c -18.02448,17.79937 -26.97459,26.04948 -35.2347,33.32957 -0.46,0.41001 -0.93,0.81001 -18.44059,15.98099"
       style="fill:none;stroke:#000000;stroke-width:0.3985;stroke-linecap:butt;stroke-linejoin:bevel;stroke-miterlimit:10;stroke-dasharray:none;stroke-opacity:1"
       transform="matrix(1.3333333,0,0,-1.3333333,0.26533333,405.59867)" />
    <path
       id="path73"
       d="M 3.58653,0 C 2.52383,0.19925 0.797,0.797 -0.3985,1.49438 V -1.49438 C 0.797,-0.797 2.52383,-0.19925 3.58653,0"
       style="fill:#000000;fill-opacity:1;fill-rule:nonzero;stroke:none"
       transform="matrix(-1.0077067,-0.87305333,-0.87305333,1.0077067,218.34765,126.95408)" />
    <path
       id="path74"
       d="m 286.52344,156.53906 c -0.21875,0 -0.40625,0 -0.59375,0.1875 -0.20312,0.20312 -0.23437,0.42187 -0.23437,0.51562 0,0.3125 0.23437,0.46875 0.48437,0.46875 0.39063,0 0.75,-0.32812 0.75,-0.85937 0,-0.64063 -0.625,-1.14063 -1.5625,-1.14063 -1.79687,0 -3.5625,1.90625 -3.5625,3.78125 0,1.1875 0.76563,2.23438 2.15625,2.23438 1.89063,0 3.01563,-1.40625 3.01563,-1.5625 0,-0.0781 -0.0937,-0.17188 -0.17188,-0.17188 -0.0625,0 -0.0937,0.0312 -0.17187,0.125 -1.04688,1.32813 -2.5,1.32813 -2.65625,1.32813 -0.82813,0 -1.1875,-0.65625 -1.1875,-1.45313 0,-0.54687 0.26562,-1.82812 0.71875,-2.65625 0.40625,-0.75 1.14062,-1.32812 1.875,-1.32812 0.4375,0 0.95312,0.17187 1.14062,0.53125 z m 0,0"
       style="fill:#000000;fill-opacity:1;fill-rule:nonzero;stroke:none;stroke-width:1.33333" />
    <path
       id="path75"
       d="m 290.11719,157.67187 c 0,-0.25 -0.0156,-0.26562 -0.28125,-0.26562 -0.59375,0.57812 -1.4375,0.59375 -1.8125,0.59375 v 0.32812 c 0.21875,0 0.82813,0 1.34375,-0.25 v 4.73438 c 0,0.3125 0,0.4375 -0.92187,0.4375 h -0.35938 v 0.32812 c 0.17188,-0.0156 1.3125,-0.0312 1.65625,-0.0312 0.28125,0 1.45313,0.0156 1.65625,0.0312 V 163.25 h -0.34375 c -0.9375,0 -0.9375,-0.125 -0.9375,-0.4375 z m 0,0"
       style="fill:#000000;fill-opacity:1;fill-rule:nonzero;stroke:none;stroke-width:1.33333" />
    <path
       id="path76"
       d="m 297.35547,164.77343 c 0,-0.0469 0,-0.0625 -0.21875,-0.29687 -1.65625,-1.67188 -2.09375,-4.17188 -2.09375,-6.21875 0,-2.29688 0.51563,-4.60938 2.14063,-6.28125 0.17187,-0.15625 0.17187,-0.17188 0.17187,-0.21875 0,-0.0937 -0.0469,-0.14063 -0.125,-0.14063 -0.14062,0 -1.32812,0.90625 -2.10937,2.59375 -0.6875,1.46875 -0.84375,2.9375 -0.84375,4.04688 0,1.04687 0.15625,2.65625 0.875,4.15625 0.79687,1.625 1.9375,2.5 2.07812,2.5 0.0781,0 0.125,-0.0469 0.125,-0.14063 z m 4.6836,-11.6875 c 0,-0.3125 0,-0.34375 -0.3125,-0.34375 -0.8125,0.84375 -1.98438,0.84375 -2.40626,0.84375 v 0.42188 c 0.26563,0 1.04688,0 1.73438,-0.34375 v 6.875 c 0,0.46875 -0.0469,0.64062 -1.23438,0.64062 h -0.42187 v 0.40625 c 0.46875,-0.0469 1.60937,-0.0469 2.14063,-0.0469 0.53124,0 1.6875,0 2.15624,0.0469 v -0.40625 h -0.42187 c -1.20313,0 -1.23437,-0.15625 -1.23437,-0.64062 z m 6.57812,5.17188 c 0,-1.03125 -0.15625,-2.64063 -0.875,-4.14063 -0.79688,-1.625 -1.95312,-2.5 -2.07812,-2.5 -0.0781,0 -0.14063,0.0625 -0.14063,0.14063 0,0.0469 0,0.0625 0.26563,0.3125 1.29687,1.3125 2.04687,3.42187 2.04687,6.1875 0,2.28125 -0.48437,4.60937 -2.125,6.29687 -0.1875,0.15625 -0.1875,0.17188 -0.1875,0.21875 0,0.0781 0.0625,0.14063 0.14063,0.14063 0.125,0 1.32812,-0.90625 2.10937,-2.59375 0.67187,-1.46875 0.84375,-2.9375 0.84375,-4.0625 z m 0,0"
       style="fill:#000000;fill-opacity:1;fill-rule:nonzero;stroke:none;stroke-width:1.33333" />
    <path
       id="path77"
       d="m 297.4073,92.67203 c -3.81353,18.31938 -7.45358,27.11949 -13.40365,33.32957 -6.14009,6.4101 -14.19019,11.25015 -46.44951,21.86908"
       style="fill:none;stroke:#000000;stroke-width:0.3985;stroke-linecap:butt;stroke-linejoin:bevel;stroke-miterlimit:10;stroke-dasharray:none;stroke-opacity:1"
       transform="matrix(1.3333333,0,0,-1.3333333,0.26533333,405.59867)" />
    <path
       id="path78"
       d="M 3.58653,0 C 2.52383,0.19925 0.797,0.797 -0.3985,1.49438 V -1.49438 C 0.797,-0.797 2.52383,-0.19925 3.58653,0"
       style="fill:#000000;fill-opacity:1;fill-rule:nonzero;stroke:none"
       transform="matrix(-1.26644,-0.41686667,-0.41686667,1.26644,317.0042,208.43777)" />
    <path
       id="path79"
       d="m 411.47265,250.13672 c -0.0469,0.20313 -0.125,0.5 -0.125,0.5625 0,0.25 0.1875,0.35938 0.39063,0.35938 0.15625,0 0.39062,-0.0937 0.48437,-0.35938 0.0156,-0.0312 0.17188,-0.65625 0.25,-0.98437 l 0.29688,-1.20313 c 0.0781,-0.29687 0.15625,-0.57812 0.23437,-0.89062 0.0469,-0.21875 0.15625,-0.60938 0.17188,-0.65625 0.1875,-0.42188 0.89062,-1.625 2.15625,-1.625 0.59375,0 0.71875,0.48437 0.71875,0.92187 0,0.34375 -0.0937,0.71875 -0.20313,1.10938 l -0.35937,1.54687 -0.26563,1 c -0.0625,0.26563 -0.1875,0.71875 -0.1875,0.78125 0,0.25 0.1875,0.35938 0.39063,0.35938 0.40625,0 0.5,-0.32813 0.59375,-0.75 0.1875,-0.75 0.6875,-2.6875 0.79687,-3.20313 0.0469,-0.17187 0.75,-1.76562 2.20313,-1.76562 0.5625,0 0.71875,0.45312 0.71875,0.92187 0,0.76563 -0.5625,2.28125 -0.82813,2.98438 -0.125,0.3125 -0.17187,0.46875 -0.17187,0.73437 0,0.625 0.46875,1.07813 1.07812,1.07813 1.25,0 1.75,-1.9375 1.75,-2.04688 0,-0.125 -0.125,-0.125 -0.15625,-0.125 -0.14062,0 -0.14062,0.0312 -0.20312,0.23438 -0.20313,0.70312 -0.625,1.65625 -1.35938,1.65625 -0.21875,0 -0.3125,-0.14063 -0.3125,-0.4375 0,-0.34375 0.10938,-0.65625 0.23438,-0.95313 0.25,-0.6875 0.8125,-2.15625 0.8125,-2.92187 0,-0.85938 -0.53125,-1.42188 -1.53125,-1.42188 -1,0 -1.67188,0.59375 -2.15625,1.29688 -0.0156,-0.17188 -0.0625,-0.625 -0.4375,-0.95313 -0.32813,-0.26562 -0.75,-0.34375 -1.07813,-0.34375 -1.20312,0 -1.84375,0.85938 -2.07812,1.15625 -0.0625,-0.75 -0.625,-1.15625 -1.21875,-1.15625 -0.60938,0 -0.85938,0.51563 -0.98438,0.76563 -0.23437,0.45312 -0.40625,1.25 -0.40625,1.28125 0,0.14062 0.125,0.14062 0.15625,0.14062 0.125,0 0.14063,-0.0156 0.21875,-0.3125 0.23438,-0.9375 0.5,-1.57812 0.96875,-1.57812 0.21875,0 0.42188,0.10937 0.42188,0.60937 0,0.28125 -0.0469,0.42188 -0.21875,1.10938 z m 0,0"
       style="fill:#000000;fill-opacity:1;fill-rule:nonzero;stroke:none;stroke-width:1.33333" />
    <path
       id="path80"
       d="m 425.07421,247.00391 c 0,-0.25 -0.0156,-0.26563 -0.28124,-0.26563 -0.59376,0.57813 -1.4375,0.59375 -1.8125,0.59375 v 0.32813 c 0.21875,0 0.82812,0 1.34374,-0.25 v 4.73437 c 0,0.3125 0,0.4375 -0.92187,0.4375 h -0.35937 v 0.32813 c 0.17187,-0.0156 1.3125,-0.0312 1.65624,-0.0312 0.28126,0 1.45313,0.0156 1.65626,0.0312 v -0.32813 h -0.34376 c -0.9375,0 -0.9375,-0.125 -0.9375,-0.4375 z m 0,0"
       style="fill:#000000;fill-opacity:1;fill-rule:nonzero;stroke:none;stroke-width:1.33333" />
    <path
       id="path81"
       d="m 432.3125,254.10547 c 0,-0.0469 0,-0.0625 -0.21875,-0.29687 C 430.4375,252.13672 430,249.63672 430,247.58985 c 0,-2.29688 0.51562,-4.60938 2.14062,-6.28125 0.17188,-0.15625 0.17188,-0.17188 0.17188,-0.21875 0,-0.0937 -0.0469,-0.14063 -0.125,-0.14063 -0.14063,0 -1.32813,0.90625 -2.10938,2.59375 -0.6875,1.46875 -0.84375,2.9375 -0.84375,4.04688 0,1.04687 0.15625,2.65625 0.875,4.15625 0.79688,1.625 1.9375,2.5 2.07813,2.5 0.0781,0 0.125,-0.0469 0.125,-0.14063 z m 4.68359,-11.6875 c 0,-0.3125 0,-0.34375 -0.3125,-0.34375 -0.8125,0.84375 -1.98438,0.84375 -2.40625,0.84375 v 0.42188 c 0.26563,0 1.04687,0 1.73437,-0.34375 v 6.875 c 0,0.46875 -0.0469,0.64062 -1.23437,0.64062 h -0.42187 v 0.40625 c 0.46874,-0.0469 1.60937,-0.0469 2.14062,-0.0469 0.53125,0 1.6875,0 2.15625,0.0469 v -0.40625 h -0.42187 c -1.20313,0 -1.23438,-0.15625 -1.23438,-0.64062 z m 6.57812,5.17188 c 0,-1.03125 -0.15624,-2.64063 -0.875,-4.14063 -0.79687,-1.625 -1.95312,-2.5 -2.07812,-2.5 -0.0781,0 -0.14062,0.0625 -0.14062,0.14063 0,0.0469 0,0.0625 0.26562,0.3125 1.29688,1.3125 2.04688,3.42187 2.04688,6.1875 0,2.28125 -0.48438,4.60937 -2.125,6.29687 -0.1875,0.15625 -0.1875,0.17188 -0.1875,0.21875 0,0.0781 0.0625,0.14063 0.14062,0.14063 0.125,0 1.32812,-0.90625 2.10938,-2.59375 0.67187,-1.46875 0.84374,-2.9375 0.84374,-4.0625 z m 0,0"
       style="fill:#000000;fill-opacity:1;fill-rule:nonzero;stroke:none;stroke-width:1.33333" />
  </g>
</svg>
